<?xml version="1.0" encoding="UTF-8"?>
<svg id="Layer_2" data-name="Layer 2" xmlns="http://www.w3.org/2000/svg" xmlns:xlink="http://www.w3.org/1999/xlink" viewBox="0 0 885.63 1021.6">
  <defs>
    <style>
      .cls-1 {
        fill: none;
      }

      .cls-2 {
        clip-path: url(#clippath-1);
      }

      .cls-3 {
        fill: #2a2a2a;
      }

      .cls-4 {
        fill: #989898;
      }

      .cls-5 {
        clip-path: url(#clippath);
      }
    </style>
    <clipPath id="clippath">
      <path class="cls-1" d="M6.56,554.23s160.85,229.25,436.18,229.25,436.18-231.81,436.18-231.81v441.55H6.56v-438.98Z"/>
    </clipPath>
    <clipPath id="clippath-1">
      <path class="cls-1" d="M6.56,554.23s160.85-183.91,436.18-183.91,436.18,181.35,436.18,181.35v441.55H6.56v-438.98Z"/>
    </clipPath>
  </defs>
  <g id="Layer_2-2" data-name="Layer 2">
    <g>
      <path d="M221.81,70.24c5.07-2.79,8.93-8.6,11.36-13.14,1.45-5.7,2.78-11.23,3.77-19.28.52-7.96-1.65-14.8-3.88-19.82-1.93-5.28-6.31-9.24-11.31-12.76-5.41-2.7-10.1-4.53-17.99-4.47-.08-.21-26.73.9-26.17,0,.71-.42.51,18.35,0,37.1.3,19.35-1.02,36.65,0,37.1-.04.29,25.64-.12,25.52,0,7.42-.56,13-1.71,18.69-4.74ZM187.72,66.04c-1.51.25.04-55.68,0-56.33-.91.46,14.8.24,14.65,0,4.68.71,9.27.18,13.25,2.96,1.81,2.63,6,5.29,8.19,9.1,1.62,4.74,2.49,9.59,2.8,15.72.12,10.54-1.23,16.49-6.14,21.43-3.72,4.68-9.78,6.67-18.2,7.11.31.41-14.32-.45-14.54,0Z"/>
      <path d="M258.69,72.82c3.56,1.68,7.03,3.83,12.82,3.34,5.03-.34,9.15-.84,12.87-3.34,3.86-2.23,7.12-5.85,9.15-9.64,2.63-4.04,3.66-9.24,3.39-14.81.77-5.12-.29-11.31-3.39-14.7-1.68-4.1-4.67-7.99-9.15-9.64-4.18-2.68-7.65-2.83-12.87-3.34-4.75-.37-9.54,1.28-12.76,3.34-4.94,1.95-7.58,5.53-9.1,9.64-2.1,3.57-2.8,10.03-3.34,14.7,1.79,5.97,1.34,11.04,3.34,14.81,3.66,3.11,5.38,7.77,9.05,9.64ZM258.05,37.55c.83-3.43,2.9-4.92,5.38-6.73,2.08-1.44,4.87-3.14,8.08-2.26,3.04-1.08,6.51.91,8.13,2.32,3.87,1.17,4.51,3.52,5.44,6.78,1.94,2.92,2.25,5.26,1.94,10.72.09,3.76-.16,8.06-1.94,10.77-1.44,3.69-3.41,5.25-5.44,6.84-2.41,1.69-4.54,2.41-8.13,2.32-3.35-.05-5.76-.77-8.08-2.32-2.07-2.49-3.85-3.46-5.38-6.79-.92-3.25-1.92-7.05-1.94-10.82-.94-4.36,1.25-7.44,1.94-10.82Z"/>
      <path d="M318.03,48.27c.08-3.81,1.43-8.02,2.05-9.96,1.07-3.01,3.32-5.15,5.6-6.73,2.9-.72,4.28-2.83,7.86-2.37,3.24-.58,6.35.97,8.89,3.55,2.35,1.71,2.21,5.42,2.96,10.77.51.85-.13,32.16,0,31.45.48-.55,10.35-.05,9.59,0,.84-1.04.71-34.01,0-33.39-.99-4.86-.55-8.6-2.21-10.88-1.8-1.9-3.98-5.8-6.41-7.16-2.77-1.56-5.91-2.9-10.12-2.53-3.68-.47-7.65.02-10.34,2.85-3.57,1.89-4.96,4.19-6.84,7.65.08.6-.95,2.09-1.24,2.89,1.02.05-.29-13.24,0-12.21.41.84-8.43-.26-9.37,0-.38-.85.43,52.91,0,52.77.71-.39,9.17.16,9.58,0,1.45-.9.11-25.65,0-26.71Z"/>
      <path d="M374.47,26.14c3.03-2.84,2.1-5.67,3.12-10.07-.08,1,.42-14.4,0-15.29-.75-.78-10.93-1.26-10.77,0-.31.45.47,14.23,0,14.32-.9-.66,5.21,1,5.06,0,.55.78-1.08,1.84,0,1.94-.27,2.14-1.37,4.59-1.51,5.6-.28,1.76-1.74,2.24-4.31,2.05-.86-.2.68,5.25,0,4.74.85.75.19.64.22,0,4.65.44,6.64-1.59,8.18-3.28Z"/>
      <path d="M395.58,60.98c-.2,4.35.44,6.93,3.82,11.25,3.19,2.3,7.31,2.8,11.15,3.72,2.23.1,3.2.12,4.74-.43,1.15-.06,2.25-.8,3.77-1.18.23.6-.38-7.36,0-7.54-3.19.23-4.76.18-6.35.86-3.51-.39-5.47.23-5.92-1.78-1.14-.84-2.04-1.95-1.83-5.87.79-.62-.1-29.55,0-30.37-1.38-.69,13.28-.43,13.46,0-.42-1.4.09-7.09,0-7.43-.78-.12-14.01-.68-13.57,0,.39.71.69-16.85,0-15.72-1.45-.23-9.07.72-9.26,0,.29.13-.6,15.96,0,15.72-.04-1.17-12.03.34-11.42,0,.66.9-.14,7.6,0,7.43.28-.78,11.32-.49,11.42,0-1.42-.21-.39,31.91,0,31.34Z"/>
      <path d="M462.51,72.93c3.59,1.85,7.52,3.95,13.08,3.34,5.34.39,10.64-2.55,14.32-4.15,4.83-3.51,6.77-6.07,8.19-11.58-.63-.73-8.12-4.16-8.19-3.23-1.51,3.76-3.02,6.09-5.44,8.4-2.8,1.44-5.38,3.1-8.89,2.69-2.1.75-4.78-1.95-7.92-2.32-2.84-2.94-3.63-4.55-5.33-6.79-1.24-2.11-1.35-5.52-1.94-10.61-.65-3.4.15-7.62,1.94-11.15.69-3.29,3.61-4.71,5.38-6.84,2.31-1.08,6.31-2.26,7.97-2.26,4.39-1.1,6.46.72,8.24,2.53,1.15.81,4.09,3.7,5.12,7.7,1.12.08,8.26-2.06,8.4-3.02-1.44-3.91-4.82-8.72-7.81-10.99-4.94-2.69-8.47-2.93-13.73-3.98-3.74-1.06-9.06,1.79-12.98,3.28-3.32,3.12-6.51,6.19-9.1,9.59-1.81,3.23-3.6,9.39-3.34,14.81.63,6.95,1.04,11.41,3.18,14.92,1.79,4.49,3.91,8.64,8.83,9.64Z"/>
      <path d="M517.92.77c-1.21,0-10.08-.13-9.58,0-.63-.17.53,18.1,0,37.1.34,18.05.7,38.03,0,37.1.4.25,8.84.26,9.58,0-.17-.1-.88-19.46,0-37.1-.32-20.01,1.11-36.27,0-37.1Z"/>
      <path d="M541.72,72.82c3.64,2.36,7.42,3.72,12.82,3.34,6.38.08,10.03-1.2,12.87-3.34,4.1-1.85,6.7-5.87,9.15-9.64,2.09-3.66,1.99-9.12,3.39-14.81.46-6.52-1.54-11.2-3.39-14.7-2.09-4.71-5.76-7.23-9.15-9.64-4.13-1.89-8.07-3.66-12.87-3.34-5.35,1.09-9.9.05-12.76,3.34-4.13,3.02-6.5,5.71-9.1,9.64-1.98,3.63-2.29,9.27-3.34,14.7-.28,4.74.1,11.19,3.34,14.81,1.75,5.45,4.58,6.68,9.05,9.64ZM541.07,37.55c.22-2.87,4.82-4.26,5.38-6.73,2.47-.56,5.88-2.26,8.08-2.26,3.19.89,4.38.43,8.13,2.32,1.88,2.14,4.53,3.25,5.44,6.78,2.02,2.09,1.63,6.01,1.94,10.72,0,4.44-.5,8.34-1.94,10.77-1.58,3.6-2.58,4.8-5.44,6.84-2.27.15-5.97,2.11-8.13,2.32-2.11-1.6-4.93-.44-8.08-2.32-1.94-1.96-4.76-4.23-5.38-6.79-2-3.02-1.93-7.26-1.94-10.82.42-5.66.28-8.59,1.94-10.82Z"/>
      <path d="M619.15,66.9c-2.3,1.69-4.46,1.91-8.72,2.26-3.82.22-6.88,1.07-9.48-3.02-2.38-1.06-4.24-5.19-4.85-7.65-.68.6-9,3.05-8.51,2.91.13,2.41,3.54,5.32,4.09,7.86,1.49,1.7,6.11,4.13,7.75,5.22,3.7,1.99,7.16,1.63,10.77,1.88,5.97.66,11.38-.79,15.46-4.31,4.2-3.21,6.27-7.52,5.87-11.95,0-3.99-1.29-6.4-3.55-9.53-1.53-2.93-5.74-5.31-10.88-5.76-.58.38-8.93-2.13-8.83-2.26-3.78-1.54-5-1.56-7.38-3.12-.55-1.58-1.42-3.65-2.21-4.74,1.18-2.43.27-4.88,2.8-4.95,2.69-1.2,4.77-.97,7.86-1.83,2.66-.25,6.68.79,8.24,2.53,2.01,2.16,4.09,4.35,4.04,6.3-.45.03,9.04-2.82,8.51-2.8-1.16-3.64-3.46-7.35-7.38-9.75-3.1-2.2-7.61-3.18-13.08-3.5-3.94.3-8.15-.25-10.29,1.83-3.42,1.59-5.29,2.11-6.95,5.22-1.17,1.58-2.74,4.32-2.48,8.02-.43,4.05-.3,7.2,3.66,9.42,2.75,2.48,6.51,4.99,10.88,5.55-.17-.11,8.13,1.87,7.97,2.05,3.44,1.23,7,3.04,7.7,3.18,1.97.98,2.73,3.02,2.1,5.12.93,3.35-1.28,4.81-3.12,5.82Z"/>
      <path d="M651.46,72.72c3.13,1.92,8.17,3.15,13.79,3.45,5.57-.35,10.72-1.33,14.43-4.09,4.28-2.79,7.63-6.92,8.51-10.34-.25-.44-7.97-4.13-7.65-4.09-1.35,3.09-3.65,6.26-6.08,7.97-3.2,1.77-5.57,3.63-9.1,2.8-4.15.84-5.85-.64-8.89-2.32-3.02-1.23-4.45-3.13-5.44-6.62-.97-2.24-1.74-5.32-1.81-9.15-.58-.96,39.73-.45,39.51,0,0,.16-.08-2.28,0-1.83-.16-5.24-.39-11.73-2.85-14.86-2.07-3.97-5.35-7.05-8.29-9.58-2.95-2.92-8.33-3.36-12.98-3.34-4.46-.17-9.89.6-12.65,3.28-3.9,2.04-6.02,4.77-8.89,9.53-2.24,3.69-3.39,9.16-3.23,14.65-.74,6.05,1.24,10.51,2.96,14.81,1.86,4,4.8,7.22,8.67,9.75ZM651.95,35.08c.87-1.95,3.04-4.22,5.22-5.01,2.88-.34,3.99-1.63,7.43-1.72,5.09.31,7.96,2.23,10.61,4.09,1.6,2.14,4.05,6.13,3.86,10.45-.15.22-29.99.26-29.54,0-.41-3.31,1.16-4.85,2.42-7.81Z"/>
      <path d="M245.5,168.69c.44-.27-15.8-42.12-16-41.48-.35.69-10.69-.2-10.55,0,.03.91,21.07,53.14,21.46,53.06-.08-.57-.56,3-1.11,3.37-.85,3.5-3.03,5.95-4.36,7.27-1.26,1.28-4.22,1.66-7.05,1.99-.33-.02-6.74.09-6.25,0-.04-.44-.02,8.04,0,7.97,2.72.23,4.68-.28,6.25.32,4.25-.08,9.43-.59,11.58-2.75,3.01-1.05,5.55-4.7,7.59-10.18-.14.48,6.16-15.78,11.69-30.53,6.18-14.6,10.84-31.06,11.69-30.53.31-.22-9.24-.58-10.02,0-1.09-.48-14.78,42.04-14.91,41.48Z"/>
      <path d="M278.08,138.68c-2.16,3.82-3.58,8.62-3.34,14.7-.78,4.87,1.32,11,3.34,14.81,2.13,4.75,5.58,7.62,9.05,9.64,2.48,2.9,8.1,3.57,12.82,3.34,5.6.83,8.18-.67,12.87-3.34,4.68-2.07,7-5.66,9.15-9.64,1.74-4.16,3.92-9.24,3.39-14.81.52-6.87-1.28-10.95-3.39-14.7-1.94-4.55-5.66-7.03-9.15-9.64-3.29-1.32-7.49-2.56-12.87-3.34-4.89.67-8.42,1.18-12.76,3.34-3.6,1.65-6.93,5.15-9.1,9.64ZM291.86,135.82c2.65-1.37,5.54-2.51,8.08-2.26,3.14-.17,6.04.12,8.13,2.32,2.64,1.35,3.38,3.63,5.44,6.78,1.43,3.2,2.26,6.38,1.94,10.72-.54,4.62-1.49,7.54-1.94,10.77-.84,2.82-3.32,6.11-5.44,6.84-2.25,1.01-5.27,2.45-8.13,2.32-3.35.32-5.25.01-8.08-2.32-1.34-1.29-3.59-4.28-5.38-6.79-1-2.81-1.32-6.87-1.94-10.82.9-3.71.14-7.16,1.94-10.82,1.5-2.23,4.12-4.84,5.38-6.73Z"/>
      <path d="M348.51,169.48c-1.06-.87-2.62-5.01-2.58-10.72,0,.05-.91-30.99,0-31.56-.08-.21-9.41,1.32-9.48,0,1.04-.04,1.15,32.37,0,33.6.15,3.98.76,7.98,1.94,10.88,1.44,3.21,4.32,4.47,5.82,7,3.34.96,6.14,2.45,9.59,2.48,4.09.36,8.61-1.34,11.47-3.61,2.84-3.53,6.71-5.14,7.05-9.64-.04.57.68,13.43,0,12.06.04-.12,9.4.28,9.37,0,.86,1.1-.05-51.62,0-52.77.56.67-9.93.25-9.48,0,1.08-.55.71,26.13,0,25.52.11,4.02-1.46,6.99-2.1,11.04-1.1,2.53-4.45,4.85-5.71,6.89-2.05,2.41-6.39,2.68-8.02,2.32-4.4-.35-5.42-2.37-7.86-3.5Z"/>
      <path d="M405.48,140.45c.71-.1,1.1-13.05,0-13.25-.2-.01-9.87.33-9.37,0-.16.15.48,53.52,0,52.77-.09.11,10.31.37,9.48,0,.13-.4-.4-22.99,0-23.05.02-5.51,1.25-8.78,2.21-12.28.87-2.45,4.31-5.29,6.19-7.05,2.15-1.01,4.79-2.55,9.48-2.21,1.15.35,1.62-.59,3.23.22-.77-.23-.69-9.31,0-9.58-1.07.13-1.78-.01-2.69-.22-3.08.23-7.73,1.85-11.36,3.88-4.27,1.81-5.06,5.11-7.16,10.77Z"/>
      <path d="M491.8,129.04c-3.18-1.49-8.25-2.29-12.98-3.34-5.26-.18-9.06.78-12.65,3.28-3.24,2.65-6.97,5.48-8.89,9.53-1.57,5.07-2.2,9.14-3.23,14.65.44,5.19-.93,11.1,2.96,14.81,1.74,4.22,3.66,8.38,8.67,9.75,4.35,3.03,7.78,3.61,13.79,3.45,6.07.42,11.02-.33,14.43-4.09,5.19-4.36,5.71-5.15,8.51-10.34-1.23-.33-7.13-4.31-7.65-4.09-1.3,4.07-2.26,6.05-6.08,7.97-3.8,1.2-4.92,3.5-9.1,2.8-4.62.08-5.34-.63-8.89-2.32-2.02-2.32-4.04-4.4-5.44-6.62-.2-1.34-1.68-5.87-1.81-9.15-.1.4,40.2-1.25,39.51,0,.23-.6-.86-2.04,0-1.83-.95-5-.75-10.5-2.85-14.86-1.14-4.02-4.27-6.31-8.29-9.58ZM466.17,140.08c1.34-.86,2.72-3.08,5.22-5.01,1.84-1.07,5.56-1.6,7.43-1.72,4.07-.39,7.78,1.82,10.61,4.09,1.62,1.85,2.32,5.35,3.86,10.45.13-.56-29.57.39-29.54,0,.46-2.42.3-5.7,2.42-7.81Z"/>
      <path d="M528.15,183.64c-1.24,3.57-2.41,6.65-4.36,7.27-2.36,1.17-4.48,2.67-7.05,1.99.27-.57-6.1.89-6.25,0,.69-.27-2.07,6.03,0,7.97,2.76.08,4.94.54,6.25.32,4.53-.21,8.9-.86,11.58-2.75,4.14-2.28,5.71-5.92,7.59-10.18-.26.82,5.22-15.14,11.69-30.53,5.38-15.7,12.27-31.21,11.69-30.53-.6-.2-9.06.17-10.02,0-.21.31-14.43,41.99-14.91,41.48-.03-.57-15.76-41.16-16-41.48.92.98-10.1-.43-10.55,0,.28-.79,21.21,53.66,21.46,53.06,1.21-.67.11,3.26-1.11,3.37Z"/>
      <path d="M601.44,129.04c-4.49-3.57-7.39-2.97-12.98-3.34-4.61.76-8.95,1.26-12.65,3.28-2.26,2.34-6.03,6.59-8.89,9.53-2.31,3.23-3.4,8.37-3.23,14.65.59,5.54.89,10.67,2.96,14.81,2.36,4.69,5.67,6.49,8.67,9.75,3.71,2.79,7.75,3.96,13.79,3.45,6.16.04,10.1-2.48,14.43-4.09,3.72-2.5,6.27-6.49,8.51-10.34-.44-.39-7.81-3.65-7.65-4.09-1.44,4.06-3.34,6.21-6.08,7.97-2.63,1.08-5.7,3.13-9.1,2.8-3.56-.33-5.92-1.56-8.89-2.32-2.06-.99-3.35-3.57-5.44-6.62-2.37-2.75-1.83-6.18-1.81-9.15.97-.8,39.85-.18,39.51,0,.33.36-.4-1.77,0-1.83.32-5.67-1.52-9.97-2.85-14.86-1.85-4.07-4.9-7.52-8.29-9.58ZM575.81,140.08c1.03-3.02,3.19-4.07,5.22-5.01,2.54-.86,4.38-1.56,7.43-1.72,4.87,0,8.35.37,10.61,4.09,2.26,2.14,3.85,6.79,3.86,10.45-.44.01-29.43-.71-29.54,0,.76-3.47,1.42-5.75,2.42-7.81Z"/>
      <path d="M625.08,132.75c-1.39,2.49-3.13,5.67-2.48,8.02-.19,4.3,1.43,6.73,3.66,9.42,1.72,2.28,5.42,4.17,10.88,5.55-.07.1,7.3,2.17,7.97,2.05,3.59.21,6.04,2.53,7.7,3.18.99,1.55,2.64,2.52,2.1,5.12.67,2.1-.93,3.72-3.12,5.82-2.41.94-4.72,2.44-8.72,2.26-3.26.28-7.62-.79-9.48-3.02-3.23-2.33-3.68-4.14-4.85-7.65.09-.66-8.46,3.45-8.51,2.91.91,3.02,2.18,6.02,4.09,7.86,2.28,1.85,4.99,4.34,7.75,5.22,3.21.79,5.74,2.41,10.77,1.88,5.81.26,11.59-1.17,15.46-4.31,3.54-3.18,5.74-7.26,5.87-11.95-.12-4.16-.55-6.86-3.55-9.53-1.86-2.46-5.32-4.66-10.88-5.76.61-.36-8.54-1.64-8.83-2.26-3.43-1.43-6.3-1.86-7.38-3.12-1.56-1.24-2.34-2.15-2.21-4.74.24-2.58,1.17-4.13,2.8-4.95,1.83-1.47,4.72-1.67,7.86-1.83,4.07-1.17,6.53.71,8.24,2.53,2.05,1.68,4.03,4.06,4.04,6.3-.8.72,9.01-1.96,8.51-2.8-.76-4.66-3.25-7.07-7.38-9.75-3.86-2.58-8.42-3.99-13.08-3.5-4.1.16-6.34.97-10.29,1.83-2.33.88-5.15,2.04-6.95,5.22Z"/>
      <path d="M212.76,284.98s-.83-45.21,0-45.34c.07.8,12.36-.98,12.92,0-.16.21-.32-7.48,0-7.43.05.61-13.32-.35-12.92,0,.39-.71-.35-7.28,0-6.35-.09-2.79.64-4.37,1.88-6.25,1.74-.93,4.12-1.62,6.19-2.05,2.02.31,2.69.19,4.74.65,0-.38.32-8.66,0-7.43-.5-1.38-2.17-.75-3.29-.7-1.79-.37-2.24-.9-3.72-.27-4.86-.4-8.17,1.94-11.09,3.72-1.9,2.75-4.1,6.63-3.98,11.25-.13-.37-.24,8.01,0,7.43-.16-1.55-12.08-.86-11.31,0-.44.77.53,7.71,0,7.43-.22.3,11.3-.46,11.31,0,.24-.71,0,45.34,0,45.34h9.26Z"/>
      <path d="M277.21,273.19c2.24-3.4,3.65-10.17,3.39-14.81.78-5.34-.88-10.51-3.39-14.7-1.77-3.74-5.24-7.21-9.15-9.64-3.94-1.78-9.39-2.4-12.87-3.34-4.99-.18-9.26,1.44-12.76,3.34-3.28,1.84-6.55,6.23-9.1,9.64-2.04,4.23-3.85,8.48-3.34,14.7-.87,4.8.59,10.99,3.34,14.81,1.65,4.16,5.22,7.01,9.05,9.64,3.56,2.04,7.45,2.84,12.82,3.34,4.6.54,9.02-1.39,12.87-3.34,3.79-1.64,7.11-4.37,9.15-9.64ZM268.76,269.15c-.18,2.97-2.39,4.69-5.44,6.84-2.04.8-5.1,1.08-8.13,2.32-3.47-1.64-5.34-.62-8.08-2.32-1.53-1.28-4.05-3.49-5.38-6.79-1.05-2.68-.95-7.35-1.94-10.82-.95-4.78,1.36-8.57,1.94-10.82,1.3-2.91,3.17-6.04,5.38-6.73,1.75-2.03,4.47-1.81,8.08-2.26,2.43-1.04,5.83.59,8.13,2.32,2.25,2.84,4.26,4.04,5.44,6.78,1.36,3.56,2.09,6.54,1.94,10.72-.86,4.28.05,8.33-1.94,10.77Z"/>
      <path d="M292.13,232.21c.08-.42-.29,52.58,0,52.77.24,1.15,7.99.5,9.48,0,.77.77.31-23.68,0-23.05-.22-6.37-.15-8.25,2.21-12.28.3-3.47,3.84-5.33,6.19-7.05,3.46-.36,6.87-2.58,9.48-2.21,1.79.95,2.76.51,3.23.22-.51.32.83-10.49,0-9.58-1.37-.08-1.25-.57-2.69-.22-4.59-1.09-9.33,1.54-11.36,3.88-3.61,2.58-5.02,7.02-7.16,10.77-.1.12-.27-12.17,0-13.25.33.41-9.68.65-9.37,0Z"/>
      <path d="M374.2,210.77c-1.77-.19-8.98-1.01-9.05,0-.7,1.54-3.84,18.27-8.02,37.1-4.29,18.83-8.15,36.95-8.02,37.1.73.04,9.12.26,9.05,0,.25-.1,2.79-19.37,8.02-37.1,3.13-19.68,8.28-36.34,8.02-37.1Z"/>
      <path d="M384.16,254.66c3.22.67,6.4,3.47,9.96,5.65-1.44-.67,7.04,1.7,5.92,1.94,1.94.49,5.65,3.76,6.68,3.61,1.68,1.46,3.6,2.75,1.94,5.22.56,3.54-2.62,3.72-3.29,6.46-1.06,1.72-6.09,2.93-9.1,2.37-4.3.79-6.74-1.07-9.58-2.85-3.24-2.12-4.59-4.17-4.74-8.45-.29-.38-7.08,3.4-7.65,2.48-.64,2.55,2.21,5.93,3.72,8.13,2.12,1.74,3.94,3.83,7.54,5.38,2.69,1.23,4.44,2.54,10.29,1.88,5.66-.35,13.87-.77,15.4-4.31,3.86-2.74,6.21-6.35,5.92-11.95.92-1.93-1.77-6.62-3.5-9.21-3.63-1.83-5.09-4.36-10.29-6.19-.59.97-6.78,0-6.03-1.94-3.27-.69-5.96-2.11-6.68-3.39-1.11-1.34-1.41-4.21-1.72-5.22.55-2.64,2.09-4.64,3.12-5.22,2.59-.74,5.32-2.95,7.97-1.88,4.23-.33,7.99,2.23,8.78,2.64,3.16,1.1,4.43,3.28,4.04,6.84.12-.76,7.55-2.68,7.43-2.8-2.25-4.15-3.14-5.9-6.41-9.42-3.3-2.81-7.56-4.08-13.41-3.72-3.77.02-5.73,1.62-10.23,1.83-2.03,1.16-4.6,3.2-6.89,5.22-2.92,2.69-1.91,4.7-2.48,7.92-.65,4.23,1.11,6.77,3.28,8.99Z"/>
      <path d="M433.43,284.98c-.43-.49,5.71-25.42,5.49-25.42.12-2.85.55-7.01,4.31-10.99,4.16-2.81,4.15-5.23,7.49-6.79,3.39-.46,5.51-3.42,10.72-2.37,2.06-.99,2.26.07,2.58.22-.86.69,3.96-7.57,1.94-8.72-.25-1.09-1.04-1.44-2.69-.11-6.52.06-9.69,1.27-12.92,3.45-3.31,1.57-4.75,5.32-8.19,10.02.37-.39,3.2-12.14,2.48-12.06-.27.14-8.15.57-8.4,0-.1.1-12.09,50.96-11.42,52.77.11-.72,9.32-.4,8.62,0Z"/>
      <path d="M479.69,232.58c-3.69,1.98-3.98,2.09-7.38,5.17-2.16,2.8-4.15,4.31-3.45,7.81,1.78.49,7.14,1.7,7.97,1.62-.38.88-.53,1.22.11,0,.12-3.42,2.04-5.99,4.31-7.49,1.69-2.32,5.72-2.5,9.48-2.42,5.66-.11,7.56.61,10.34,3.5.82,1.03,2.67,7.73,2.05,9.96-.36-.64,1.81,2.12-.54,2.48-4.24-1.18-9.06-.09-11.52-.97-8.45-.51-15.1.46-20.03,4.79-5.1,3.63-7.31,8.89-7.65,14.7-.8,3.73,1.11,8.81,4.36,10.82,3.02,3.21,6.56,4.24,11.68,3.93,3.95-.25,7.29-.95,9.69-1.99,3.13-1.65,5.05-3.58,7.05-5.55.92.12.61-1.94,2.47-3.78-1.22,3.79-1.3,4.21,1.25,7.23,1.84,2.43,3.91,3.82,7.32,3.55.71,1.6,5.02.03,5.82-1.08-.14-.22,1.38-5.24,1.29-6.14-.44-.39-3.38,1.97-3.66.65-2.23-.51-4.04-1.1-3.88-1.83-.2-1.32-1.14-2.59-.21-5.28.33.08,3.82-20.09,4.09-18.42,1.89-6.53,1.32-12.41-2.85-17.02-5.28-4.22-9.02-6.92-17.18-6.14-5.43,1.62-6.67,1.73-10.93,1.88ZM500.31,263.22c-.8,6.02-2.59,8.83-6.52,12.01-3.25,2.77-7.39,5.4-12.01,4.25-1.71-.57-5.96-1.31-7.38-2.26-1.63-1.98-1.7-4.13-2.64-6.25-.43-3.57,1.44-6.21,5.71-9.48,3.23-3.22,8.35-4.26,15.08-3.12,2.01.09,5.42,1.56,8.62.65-.51.48-.87,4.74-.86,4.2Z"/>
      <path d="M559.17,282.66c4.5-1.61,7.09-6.11,9.53-10.07-.89.8-6.06-4.38-6.57-4.2-1.49,3.93-3.49,5.15-6.95,8.24-3.03,1.29-6.24,3.39-9.64,2.75-3.46.34-6.33-.96-8.24-2.37-3.06-1.71-3.77-3.66-5.12-6.73-1.85-3.86-1.43-6.78-1.08-9.85-.41-.44-.37-.12.08-.54.44.26,39.95,1.26,39.88,0-.15.32.57-1.59.32-2.05,1.02-4.9.4-10.91-1.45-14.43-1.61-4.5-4.31-7.68-7.49-9.42-4.3-2.21-7.8-3.36-12.49-3.28-4.55-.52-8.52,1.86-13.25,3.5-3.65,2.25-6.98,5.1-9.48,10.02-2.26,5.85-3.99,9.19-4.31,15.13-1.44,6.71.71,10.94,1.78,14.27,1.89,4.36,3.88,7.73,7.81,9.37,3.41,2.33,7.47,3.36,12.49,3.28,5.6-.7,11.06-1.71,14.16-3.61ZM536.01,244.81c.78-2.65,3.18-4.25,6.03-5.38.69-1.43,5.08-2.15,7.7-1.83,4.17.63,9.46,1.84,10.77,4.42,1.27,4.31,3.5,6.51,2.95,11.31,1.58.97-32.31.13-31.17,0,.8-3.87,2.94-6.69,3.72-8.51Z"/>
      <path d="M585.93,284.98c.2.34,3.5-19.31,8.02-37.1,4.03-18.4,7.6-37.2,8.02-37.1-.47.75-8.61-.44-8.62,0,.28.41-4.36,19.42-8.02,37.1-4.03,19.08-7.01,37.72-8.02,37.1-.67,1,7.51.34,8.62,0Z"/>
      <path d="M609.41,232.64c-.59,1.32-2.96,1.57-4.31,2.05.16.16.23,5.72,0,4.74-.19.03-.26,0,.22,0,3.03.19,7.07-.93,8.18-3.28,1.73-1.57,3.67-4.91,3.12-10.07-.28.57.11-15.34,0-15.29-.17-.02-10.99-.08-10.77,0-.46,0-.4,14.16,0,14.32.61.44,5.54.5,5.06,0,.25,0,.43,1.01,0,1.94-.09,1.74-.63,3.82-1.51,5.6Z"/>
      <path d="M654.86,276.9c-2.19.9-5.17,3.1-8.72,2.26-3.24.04-7.49-1.27-9.48-3.02-2.87-1.74-3.86-4.05-4.85-7.65-.09-.26-8.94,3.13-8.51,2.91.29,3.69,2.69,6.3,4.09,7.86,1.73,2.33,4.01,3.54,7.75,5.22,3.28.7,6.54,1.45,10.77,1.88,7.32.07,11.28-.69,15.46-4.31,4.22-3.25,6.02-6.54,5.87-11.95.57-3.48-.9-7.16-3.55-9.53-3.07-2.33-5.96-3.83-10.88-5.76-.28.57-9.14-2.17-8.83-2.26-4.28-1.17-5.75-1.45-7.38-3.12-1.85-1.18-1.7-2.96-2.21-4.74.68-1.51,1.55-3.97,2.8-4.95,2.08-.66,5.21-1.89,7.86-1.83,3.86-.55,6.18.88,8.24,2.53,2.73,1.77,3.58,3.92,4.04,6.3-.06.76,7.77-3.05,8.51-2.8-1.4-4.49-4.25-7.54-7.38-9.75-3.32-1.81-8.56-3.47-13.08-3.5-3.38.33-7.82,1.04-10.29,1.83-3,1.78-5.06,3.38-6.95,5.22-1.77,1.19-2.72,5.24-2.48,8.02.19,3.5.93,6.28,3.66,9.42,2.76,2.11,5.96,4.5,10.88,5.55.25-.32,7.13,1.53,7.97,2.05,3.36,1.3,5.94,1.85,7.7,3.18,1.22.43,1.92,2.71,2.1,5.12-.65,2.76-1.32,4.72-3.12,5.82Z"/>
      <path d="M186.59,412.49c8.71,1.15,17.85,0,22.19-4.15,4.68-2.76,7.78-6.68,7.43-12.12.12-4.09-1.39-7.68-4.52-9.32-1.68-2.85-6.55-3.83-12.49-3.28-.44-.43-19.66-.4-20.46,0-3.25-.82-4.96-.75-6.41-1.02-1.58,0-1.71-2.48-1.99-3.28.15-1.97.09-3.26,2.1-3.82,1.13-.39,3.37-.67,4.15-2.18,3.05,1.01,7.07,2.37,10.77,1.91,4.65-.4,9.22-1.64,11.79-2.42,3.51-2.29,5.96-3.33,7.65-6.89,2.12-4.22,3.48-6.17,3.29-10.61-1.26-.55-.97-3.56.11-2.69,2.29-3.45-.27-6.72,2.53-8.08,2.29-1.29,3.29-.64,6.73-2.26-.16-.27,1.73-1.26,1.62,0-.3.22-1.45-8.88-.86-7.86-3.77.31-5.75.16-8.13,1.51-1.62,1.67-2.16,2.77-3.82,5.01.6,1.76-.06,2.98-.71,5.15-.41-2.59-3.66-5.2-6.08-6.66-3.48-1.26-9.04-3.93-14.11-3.72-4.46-.23-8.78,1.1-11.85,2.58-3,1.56-6.09,4.21-8.08,7.11-2.19,3.24-3.38,6.58-2.91,10.23-.07,4.41,1.1,7.67,2.91,10.39.73,2.3,2.67,2.74,4.53,4.77-1.03.5-2.05.35-3.18,1.63-1.93.49-3.24,2.17-4.2,4.04-1.33,1.82-1.86,3.35-1.67,5.33.46,2.03.51,4.81,1.72,5.49,1.77,1.88,3.01,2.44,4.63,3.23-2.18.66-3.85,2.14-5.6,3.77-1.17,1.23-1.98,3.66-2.15,5.92-.76,3.89,1.93,6.35,6.35,9.15,4.35,1.94,10.58,3.06,18.74,3.12ZM177.38,346.47c2.07-1.85,6.31-2.79,9.96-3.23,4.02-.21,7.94.72,9.96,3.23,2.61,2.68,3.63,5.37,3.61,9.15-.37,3.14-1.7,8.8-3.61,9.15-2.34,1.48-6.05,3.69-9.96,3.23-2.57.45-4.38-.4-7.27-1.45-2.37-1.3-3.69-2.8-4.68-4.2-.58-1.41-1.13-4.63-1.62-6.73-.38-3.07,1.14-6.22,3.61-9.15ZM171.89,393.64c1.96-1.76,3.45-1.34,6.52-1.62-.39-.18,21.04.14,20.35,0,2.37-.71,4.38,1.24,6.08,1.24.13-.29,2.24,3.37,1.99,3.93.54,1.71-1.09,5.95-4.74,5.98-4.01,1.46-8.85,1.69-15.19,1.88-5.69.87-10.99-.97-13.08-1.67-3.1-1.65-4.75-3.24-4.25-5.33.09-1.17.78-3.74,2.32-4.42Z"/>
      <path d="M272.75,363.48c-1.21-5.7-.46-11.02-2.85-14.86-2.82-4.43-5.25-5.92-8.29-9.58-3.35-2.58-7.59-2.12-12.98-3.34-5.09.12-9.99.44-12.65,3.28-3.69,2.16-7.01,5.87-8.89,9.53-2.49,3.7-3.2,8.04-3.23,14.65-.48,6.01.17,9.86,2.96,14.81,1.63,4.46,4.7,8.71,8.67,9.75,3.85,1.87,8.79,3.88,13.79,3.45,6.21-.94,9.53-1.77,14.43-4.09,3.32-2.81,6.99-5.51,8.51-10.34.33.11-8.06-4.47-7.65-4.09-1.62,3.96-3.86,5.63-6.08,7.97-2.71.99-5.18,2.26-9.1,2.8-3.36-.03-5.95-.88-8.89-2.32-2.11-2.03-4.42-2.77-5.44-6.62-1.19-2.87-2.58-5.57-1.81-9.15.93-.18,39.9-1.13,39.51,0-.13-.01,1.96-2.74,0-1.83ZM235.97,350.08c.8-2.1,2.72-4.79,5.22-5.01,2.9-1.6,4.39-2,7.43-1.72,4.12-.23,7.79.3,10.61,4.09,1.78,1.36,3.4,5.3,3.86,10.45-.04-.55-30.34.36-29.54,0,.31-3.83.06-6.64,2.42-7.81Z"/>
      <path d="M284.27,389.98c-.35-.18,8.75.14,9.58,0-.3.18.8-26.67,0-26.71.54-4.54,1.4-7.55,2.05-9.96,1.59-3.55,3.23-4.73,5.6-6.73,1.55-.98,5.53-3.84,7.86-2.37,4.14.13,6.52-.18,8.89,3.55,1.77,1.97,2.74,6.85,2.96,10.77-.85.61-.13,32.58,0,31.45-.65.35,9.98.25,9.59,0-.24-.48.2-33.49,0-33.39.09-4.84-.56-8.47-2.21-10.88-1.3-3.52-3.74-5.68-6.41-7.16-2.71-1.47-6.81-2.75-10.12-2.53-4.08-.14-6.07,1.11-10.34,2.85-2.61,2.02-5.76,5.39-6.84,7.65-.5,1.64-1.43,2.24-1.24,2.89-.03-.01,1.74-12.52,0-12.21,1.29-.04-8.31-.23-9.37,0,.68-.12.1,52.81,0,52.77Z"/>
      <path d="M345.01,348.68c-1.78,3.9-2.03,8.43-3.34,14.7.91,6.5,1.92,10.38,3.34,14.81,3.13,4.64,5,7.6,9.05,9.64,3.39,2.18,6.82,2.95,12.82,3.34,3.71.02,8.99-1.52,12.87-3.34,3.26-2.18,6.35-5.66,9.15-9.64,2.11-3.39,3.07-8.75,3.39-14.81.55-4.78-.84-10.58-3.39-14.7-2.19-4.38-5.84-7.26-9.15-9.64-4.38-1.74-7.86-2.76-12.87-3.34-3.83.12-10.01,1.24-12.76,3.34-3.89,1.15-7.58,5.96-9.1,9.64ZM353.41,352.55c.54-2.04,3.95-5.47,5.38-6.73,2.99-1.8,4.81-1.94,8.08-2.26,3.47-.29,5.72.48,8.13,2.32,2.3,1.41,4.31,4.14,5.44,6.78.13,3.62,1.57,7.18,1.94,10.72-.8,3.93-.12,8.05-1.94,10.77-2.31,3.13-3.08,5.38-5.44,6.84-2.51,1.96-5.1,2.62-8.13,2.32-2.6.47-5.27.22-8.08-2.32-1.95-2.28-4.42-3.7-5.38-6.79-1.33-1.84-1.85-6.19-1.94-10.82-.32-4.9.88-7.14,1.94-10.82Z"/>
      <path d="M418.14,345.71c1.53-.56,4.97-3.32,7.97-2.26,4.09-.09,6.79,1.51,8.24,2.53,2.15,1.67,4.51,3.38,5.12,7.7-.07.37,8.61-2.19,8.4-3.02-1.11-3.89-3.33-9.06-7.81-10.99-3.73-2.63-8.03-4.13-13.73-3.98-4.3-.41-8.4.76-12.98,3.28-3.24,2.34-6.98,6.03-9.1,9.59-2.79,4.54-3.54,9.08-3.34,14.81.65,5.77,1.32,10.83,3.18,14.92,2.08,4.91,5.1,6.69,8.83,9.64,3.08,1.99,7.62,3.44,13.08,3.34,5.77.29,9.97-1.61,14.32-4.15,3.88-3.44,6.67-5.65,8.19-11.58-.34.73-8.62-4.26-8.19-3.23-1.55,4.22-3.42,7.15-5.44,8.4-2.67,1.14-5.55,2.37-8.89,2.69-3-.39-6.11-1.22-7.92-2.32-2.03-.6-3.22-3.54-5.33-6.79-1.84-2.21-2.19-6.78-1.94-10.61.08-4.05.89-8.13,1.94-11.15,2.22-2.58,2.47-4.76,5.38-6.84Z"/>
      <path d="M468.33,315.02c-.21,1.15-8.95-.02-9.69,0-.45-.16.05,11.92,0,11.95-.35-.05,10.73-.58,9.69,0-.31-.49-.12-11.03,0-11.95Z"/>
      <path d="M468.33,337.21c-.23-.06-9.39.13-9.58,0,.4-.23-.27,52.89,0,52.77,1.34-.24,9.5-.21,9.58,0,.84,1.09-.39-53.37,0-52.77Z"/>
      <path d="M530.04,389.98c-.92-.64.45-18.75,0-37.1-.15-19.65.47-36.48,0-37.1-.91-.95-9.66.51-9.69,0,.55,1.25-.02,30.67,0,31.38-.47-.58.07-.79-.92-1.87-1.84-3.01-3.3-4.46-6.62-6.84-2.6-2.04-5.75-2.54-10.34-2.64-4.99.44-8.03,1.12-11.69,3.28-3.33,1.81-6.58,5.26-8.02,9.58-1.84,4.08-2.17,8.81-2.91,14.81-.48,5.55,2.18,10.64,2.91,15.08,1.63,5.81,4.17,6.88,7.92,9.48,4.59,1.88,6.17,2.63,11.25,3.23,3.93.84,7.43-.32,10.39-2.53,3.47-1.8,5.11-3.53,7-6.68.49-1.07-.12-.69,1.24-2.34-1.03.54-.18,9.17,0,10.26-.61.19,9.38-.91,9.48,0ZM518.73,373.93c-.99,3.67-2.5,5.21-5.49,7.05-1.52,1.04-5.21,2.21-8.29,2.53-3.39-1.53-6.03.35-8.24-2.32-1.35.03-2.91-4.89-5.22-6.84-1.89-2.56-1.82-7.67-1.83-10.99-.5-4.11.43-7.99,1.88-10.61.96-3.11,2.45-5.87,5.33-6.84,2.05-1.48,5.72-2.41,8.19-2.37,2.24-.69,6.31,1.52,8.19,2.42,1.95,2.25,3.51,4.26,5.49,6.95.62,2.7,1.66,6.03,1.94,10.66.13,3.31-.23,6.9-1.94,10.34Z"/>
      <path d="M553.3,387.72c3.39,2.27,9.02,3.02,13.79,3.45,5.66-.91,10.35-1.27,14.43-4.09,3.19-1.88,7.02-6.23,8.51-10.34-.18-.34-6.9-4.94-7.65-4.09-2,4.97-2.51,6.19-6.08,7.97-2.77,2.18-5.4,4.47-9.1,2.8-3.97.62-6.68-1.19-8.89-2.32-3.2-2.29-6.06-3.24-5.44-6.62-.82-2.89-1.08-5.6-1.81-9.15-.41.56,39.27,0,39.51,0,.65-.2-.65-3.24,0-1.83.02-6.14-.58-11.48-2.85-14.86-2.28-5.28-4.05-6.66-8.29-9.58-3.89-3.64-9.8-4.04-12.98-3.34-4.03.33-6.97,1.53-12.65,3.28-3.19,2.39-7.43,4.51-8.89,9.53-1.68,3.62-2.65,10.13-3.23,14.65.95,6.04,1.13,10.17,2.96,14.81,1.78,4.43,4.28,8.01,8.67,9.75ZM553.78,350.08c1.21-2.31,2.44-4.41,5.22-5.01,2.06-1.75,4.76-2.14,7.43-1.72,5.04.55,8.75,1.3,10.61,4.09,1.5,2.23,4.48,5.61,3.86,10.45-.87.9-29.4.02-29.54,0,.95-2.74,1.09-7.01,2.42-7.81Z"/>
      <path d="M635.58,315.02c-.45-.29-9.1-.03-9.69,0,.93.63.09,11.94,0,11.95.48.53,10.57.18,9.69,0,.19-.43.61-11.84,0-11.95Z"/>
      <path d="M635.58,389.98c1.04.17-.71-52.95,0-52.77.32.07-9.3.71-9.58,0,.39.59.19,54.49,0,52.77.42.41,9.27-.48,9.58,0Z"/>
      <path d="M677.68,336.02c-3.61-.73-7.21,1.09-10.34,2.85-1.99,2.43-5.37,4.67-6.84,7.65-.18,1.35-.46,2-1.24,2.89.04-.02-.21-12.71,0-12.21-.56-.58-9.11-.38-9.37,0,.96-1,.77,52.13,0,52.77-.75.18,9.46-.73,9.58,0-.29-.14-.15-25.51,0-26.71.38-3.36,1.07-7.33,2.05-9.96,1.38-2.83,2.69-5.54,5.6-6.73,2.77-1.42,5.05-2.98,7.86-2.37,3.89.23,6.63,1.88,8.89,3.55,2.8,2.07,2.83,5.17,2.96,10.77-.05-.35.32,30.89,0,31.45.4-.49,9.41.41,9.59,0-.61-.12-.02-33.39,0-33.39.63-3.24-.74-7.87-2.21-10.88-.41-3.24-3.41-5.1-6.41-7.16-2.49-.86-5.89-2.07-10.12-2.53Z"/>
      <path d="M258.58,482.05c-.39-1.69-.78,14,0,12.92-.5-.28,13.2-.01,13.14,0,.69-1.11-.33-39.37,0-38.99-1.65-.26-32.95-.25-33.6,0,1.43.58.06,13.97,0,13.46-1.48-.19,16.4.38,16.91,0,.4-.2-.14.03,0,.11-.51,3.62-1.57,5.05-2.64,7-1.88,1.68-3.31,4.16-4.85,4.52-1.26,1.95-4.07.89-6.73,1.62-3.32.14-6.76-1.06-9.32-2.91-1.31-.42-4.6-4.09-5.98-8.51-1.27-2.9-2.49-7.72-2.05-13.46-1.04-4.37.66-8.41,1.99-12.71.41-1.94,3.13-6.49,5.87-8.51,1.8-2.11,5.37-3.29,9.37-3.02,4.36-.96,8.77.78,10.02,3.66,1.59,2.28,2.67,6.34,5.06,10.55-.51-.87,15.93-3.04,15.62-5.06.43-3.55-2.72-8.03-5.06-12.01-2.02-3.72-4.63-7.22-10.29-8.51-3.25-2.64-9.26-2.71-14.81-3.18-6.98-.58-12.98.41-18.74,4.69-5.58,3.62-9.96,7.98-12.76,13.62-2.14,6.15-4.96,12.71-4.58,21.22-.13,8.11,1.67,15.57,4.09,20.57,3.51,5.69,7.8,10.88,11.25,13.09,3.93,2.85,9.95,3.78,16.21,4.47,5.76.17,9.45-2.26,14.22-4.04,3.6-2.57,5.75-6.72,7.65-10.61Z"/>
      <path d="M308.23,494.22c1.97-.69,5.74-4.21,6.52-6.19.06-.72,1.69-1.88,1.53-3.16-.23,2.39,1.7,5.39,3.11,7.37,2,2.35,7.17,4.34,10.5,3.72,4.05-.77,6.13-.64,8.62-1.94-.04-.69-1.07-10.03,0-9.91-1.13.21-1.51-.21-3.23.43-.91.77-3.44-.2-3.29-1.4.25-1.58-1.52-2.29-1.13-4.74.19-.07.02-17.03,0-16.15-.9-6.74-2.12-12.47-6.46-16.05-6.32-3.39-9.54-5.1-18.42-5.71-4.79.5-7.5.15-12.12,1.99-3.94.78-7.35,2.76-8.56,5.76-2.29,2.32-4,5.45-3.66,8.83-.32.08,16.74,2.57,15.94,2.48,1.08-.32,1.67-1.24,0-1.08.92-2.28.71-5.81,2.37-5.87,1.06-1.55,2.5-3.29,6.03-2.1,2.36-.22,5.76.57,6.62,2.26.79,2.36,2.77,4.09,1.99,6.57.37.7.23,1.78,0,2.48-3.33-.31-6.13-.95-7.22-.54-8.88-.99-14.59,1.9-19.12,4.58-4.69,3.63-8.68,7.56-7.27,14.16-.36,5.31,2.46,10.25,4.95,12.06,3.04,1.72,7.73,4.42,12.92,4.42,3.91,1.04,6.77.22,9.37-2.26ZM301.34,472.2c2.34-2.16,5.7-2.41,9.69-2.1,1.17-.5,2.11.55,3.55.19-.06-1.06-1.36,3.43,0,2.94-.37,4.53-2,6.29-2.75,9.05-1.85,1.26-4.31,4.45-7.27,3.23-3.42-.61-3.68-.43-5.22-1.78-2-2.23-1.69-2.11-1.78-4.79,1-3.28.39-5.83,3.77-6.73Z"/>
      <path d="M341.62,494.98c.05.1,48.35,1.13,50.08,0,.17-.18.23-13.71,0-12.71.64.77-30.89-.73-30.17,0-.21-.55,28.45-27.89,28.99-28.32.02.13.47-12.2,0-11.74.65-.64-47.74.47-47.6,0-.77-1.07-.13,11.56,0,12.6-.4.46,29.11-.24,28.72,0,.33.71-30.11,29.17-30.01,28.86,1.05-.12.34,11.2,0,11.31Z"/>
      <path d="M455.78,484.1c-.21,1.45-1.88.43-3.23.43-2.14.43-3.69.37-3.29-1.4-.59-.58-.28-2.25-1.13-4.74.14-1.14-.12-14.91,0-16.15-1.18-5.84-2.4-13.66-6.46-16.05-5.02-4.98-10.64-6.29-18.42-5.71-4.82-.66-8.26.09-12.12,1.99-2.98,2.27-7.21,3.22-8.56,5.76-1.84,2.01-3.54,4.92-3.66,8.83-.07-.16,15.66,2,15.94,2.48,1.09-.5.24-1.19,0-1.08.13-2.14.98-4.91,2.37-5.87,2.01-.89,4.16-2.97,6.03-2.1,2.71-.32,6.24-.39,6.62,2.26-.56.38,1.02,3.13,1.99,6.57.33,1.94.96,2.81,0,2.48-4.03.26-5.55.78-7.22-.54-7.46-.03-14.25,1.77-19.12,4.58-6.08,2.1-6.79,8.63-7.27,14.16-.18,5.04,2.11,8.93,4.95,12.06,4.22,4.38,7.46,4.64,12.92,4.42,3.68.97,6.18-.49,9.37-2.26,2.69-1.49,4.01-2.79,6.52-6.19.86-2.34,1.28-2.65,1.53-3.16,1.58,1.48,1,5.69,3.11,7.37.81,1.7,5.41,4.11,10.5,3.72,3.67-1.61,6.18.47,8.62-1.94,1.02.29,1.16-9.29,0-9.91ZM429.12,482.27c-2.35,1.56-3.4,2.04-7.27,3.23-.65,1.64-4.61-1.18-5.22-1.78-.81-2.42-2.36-3.19-1.78-4.79.7-1.96,1.89-4.28,3.77-6.73,3.72-2.61,6.39-2,9.69-2.1,2.04-1.14,2.88.62,3.55.19,1.09,1,.09,3.25,0,2.94-.68,3.69-.27,6.75-2.75,9.05Z"/>
      <path d="M520.63,484.83c-.69,3.69.18,6.23,2.78,8.1,2.59,2.55,4.93,2.43,7.97,3.02,3.36-.46,5.44-.39,6.46-1.51.02,0,1.24-5.84,0-6.68-1.14-.43-2.21-.41-3.66.75-1.69-.06-3.83.77-3.88-1.29-1.04-.98-.69-2.44-1.18-4.63.48.69-.21-22.08,0-21.86-.82-8.06-1.31-11.67-5.6-15.02-4.44-3.65-10.05-5.86-16.48-5.01-3.77-.38-7.28,1.19-10.88,1.99-3.53,2.43-6.01,4.17-7.7,5.49-3.17,1.83-3.25,5.23-3.07,8.02.04.22,8.84,1.52,9.05,1.51.11-.29.86-.51,0-.65-.47-3.78,1.03-3.78,3.82-6.68,2.04-.94,4.58-1.44,8.78-2.37,4.72-.14,6.95.97,9.69,2.85,2.83,2.46,3.63,3.9,3.12,8.56.62-.19,1.45,3.07,0,3.12-3.01,1.33-5.7-1.33-9.8-.54-7.09-.29-13.23,3.51-18.58,4.63-4.68,3.56-6.45,9.6-6.84,13.89.13,4.46,2.64,9.32,4.79,11.74,3.96,3.57,7.32,4.93,12.55,4.2,3.32.31,6.53-1.01,10.18-2.32,2.38-1.3,5.07-3.24,6.84-6.19,1.04-.94,1.14-1.22,1.64-3.14ZM515.82,484.48c-2.09,2.21-6.8,4.09-10.82,4.15-3.45-.43-6.47-.42-7.97-2.32-1.59-.38-2.99-3.45-2.91-6.52.87-3.95,1.65-5.74,4.47-8.19,1.99-1.76,7.57-2.19,13.84-2.8,2.53-.24,4.34-.39,7.43.16-.82.16-.13,3.31,0,4.04.8,4.7-.92,8-4.04,11.47Z"/>
      <path d="M554.97,468.27c-.86-3.61.38-6.86,2.05-9.96,1.71-2.78,2.74-5.61,5.6-6.73,3.93-.82,4.65-2.43,7.86-2.37,4.32-.33,6.58,1.75,8.89,3.55.88,2.08,2.87,5.67,2.96,10.77.98-1.58-.21,30.78,0,31.45-.45.38,9.8-1.22,9.59,0-.31,1.04-.82-32.65,0-33.39.89-3.25-.88-7.81-2.21-10.88-.73-2.73-2.64-4.48-6.41-7.16-2.51-.92-6.23-1.18-10.12-2.53-3.15-.29-7.23,1.71-10.34,2.85-2.95,2.19-4.59,5.05-6.84,7.65-1.35.99-.96,1.88-1.24,2.89.13.29-1.24-13.17,0-12.21.9-.72-10.07-1.27-9.37,0,.16-.69-.28,53.56,0,52.77-1.24.85,9.43.06,9.58,0-.18-.44-.12-25.6,0-26.71Z"/>
      <path d="M642.36,487.06c.19-.46.76-1.92,1.24-2.34.36.1-.45,9.9,0,10.26-.72.57,9.15.62,9.48,0-1.27.87,1.67-17.73,0-37.1-.36-19.77-1.32-36.78,0-37.1-.36-.63-9.91.09-9.69,0,.18-.19.83,32.45,0,31.38-.97-.84-1-2.88-.92-1.87-.3-3.73-2.03-4.39-6.62-6.84-3.71-1.06-6.69-2.22-10.34-2.64-4.37-.04-9.64.2-11.69,3.28-2.55,2.47-6.04,5.17-8.02,9.58-2.74,3.78-2.16,9.01-2.91,14.81.03,6.7,1.73,10.13,2.91,15.08,2.24,4.4,4.38,5.98,7.92,9.48,3.23,2.12,6.07,2.39,11.25,3.23,4.15-.22,8.06-.05,10.39-2.53,3.09-2.17,5.79-5.36,7-6.68ZM619.75,486.2c-2.86-1.59-3.44-3.14-5.22-6.84-1.89-2.56-2.14-6.46-1.83-10.99.27-4.72.04-7.45,1.88-10.61,1.48-2.93,3.14-5.58,5.33-6.84,2.69-1.54,4.14-1.75,8.19-2.37,2.16.38,4.42,1.13,8.19,2.42,1.48,1.29,4.47,2.48,5.49,6.95,1.18,2.08,1.55,6.55,1.94,10.66,1.09,3.39-2.05,8.09-1.94,10.34-.03,2.57-2.98,5.54-5.49,7.05-2.74,2.77-4.98,2.27-8.29,2.53-2.59.63-5.76-1.39-8.24-2.32Z"/>
      <path d="M236.29,600.52c2.69.61,3.16-1.12,3.77-1.19,1.01.1,1.51-8.04,0-7.54-1.59.44-5.06-.22-6.35.86-3.1-.29-5.17-.81-5.92-1.78-1-1.05-1.9-3.71-1.83-5.87-.22.18.26-29.4,0-30.37-1.05-.32,13.17.94,13.46,0,.88.33-.59-7.13,0-7.43-.63-.75-13.19-.86-13.57,0-.68-.21.14-16.26,0-15.72,1.06-.48-9.13.37-9.26,0-.23-.32.48,16.05,0,15.72.8.32-11.38.17-11.42,0-.06-.33-.1,7.13,0,7.43-.21-.74,11.26,1.32,11.42,0,.08-.31-.32,31.21,0,31.34-.22,5.52,2.33,8.58,3.82,11.25,2.73,2.23,6.1,3.84,11.15,3.71,1.1-.31,2.15-.46,4.74-.43Z"/>
      <path d="M297.04,599.98c-.09-.55-.07-33.56,0-33.39-.95-5.1.23-8.16-2.21-10.88-1.17-2.9-5.16-6.75-6.41-7.16-1.83-1.03-6.95-2.37-10.12-2.53-2.24.16-7.85.33-10.34,2.85-4.04,1.79-4.11,5.02-6.84,7.65-.31-.29.42,1.06-1.02,2.31-1.46,1.41,1.65-32.37,0-33.05-.45.86-9.35.12-9.58,0,1.4-.07-.78,19.08,0,37.1-1.86,18.18.35,38.23,0,37.1.21.64,10.25.11,9.58,0-.18-.17-.03-26.59,0-26.71-.66-3.43,1.16-7.21,2.05-9.96.82-3.08,3.45-4.19,5.6-6.73,2.26-2.37,5.17-2.63,7.86-2.37,3.41-.54,6.92,1.82,8.89,3.55,1.91,1.16,3.55,5.59,2.96,10.77.75.3-.21,31.63,0,31.45-.34-1.62,9.16,0,9.59,0Z"/>
      <path d="M319.65,597.72c3.96,4,9.43,4.45,13.79,3.45,5.16.21,12.8-.74,14.43-4.09,4.35-3.21,6.05-6.72,8.51-10.34-.64-.76-7.04-2.62-7.65-4.09-.23,3.03-4.43,8.17-6.08,7.97-3.8,2.41-5.25,1.9-9.1,2.8-3.46.41-6.39-1.06-8.89-2.31-2.11-1.31-3.93-3.22-5.44-6.62,0-2.9-2.05-4.62-1.81-9.15-.3-1.08,39.79-.11,39.51,0-.19-.5.37-1.96,0-1.83.39-4.99-.96-9.89-2.85-14.86-2.12-4.3-5.54-6.95-8.29-9.58-3.35-2.29-7.78-3.46-12.98-3.34-4.08.78-8.8,2.03-12.65,3.28-3.53,3.02-6.66,4.32-8.89,9.53-1.63,3.95-2.63,8.27-3.23,14.65-.32,6.05,1.12,10.87,2.96,14.81,2.48,4.32,5.05,8.46,8.67,9.75ZM320.14,560.08c2.26-.85,3.46-3.27,5.22-5.01,2.62-1.89,4.04-1.24,7.43-1.72,4.18.36,7.8,1.48,10.61,4.09,1.37,1.86,4.64,5.88,3.86,10.45-.16.07-30.49-.45-29.54,0,.05-1.54,1.36-5.51,2.42-7.81Z"/>
      <path d="M401.93,599.98c-1.11.48.4-51.86,0-52.77-.52.18-9.08.87-9.58,0-.22-.85-.21,53.39,0,52.77.22-.56,10.84.23,9.58,0Z"/>
      <path d="M401.93,525.02c-.09,0-9.21.51-9.69,0,.1.14.16,11.19,0,11.95-.42-.15,9.53-.03,9.69,0-.02-.19.44-10.74,0-11.95Z"/>
      <path d="M425.84,525.77c.85-1.62-9.1.12-9.58,0-1.11.74-.05,18.31,0,37.1-.08,17.73-.36,37.22,0,37.1-.09.86,9.61-.56,9.58,0-.56-.44,2.25-16.19,0-37.1-.62-19.35.32-37.26,0-37.1Z"/>
      <path d="M449.75,525.77c-.97.09-9.94-.44-9.58,0-1.05,1.34.3,19.01,0,37.1.49,17.98,0,37.18,0,37.1-2.09.68,9.78.43,9.58,0-.87,1.6.49-17.4,0-37.1-.16-18.57-1.58-37.28,0-37.1Z"/>
      <path d="M510.16,573.48c-.66-5.86.13-10.05-2.85-14.86-1.56-3.27-4.36-7.26-8.29-9.58-2.86-2.15-8.38-4.15-12.98-3.34-6.25-.99-9.56,2.44-12.65,3.28-3.85,2.02-7.33,5.79-8.89,9.53-1.9,4.29-3.61,8.88-3.23,14.65,1.67,6.08.96,10.78,2.96,14.81,2.68,7.06,4.89,6.79,8.67,9.75,4.79.92,8.82,2.05,13.79,3.45,5.87.03,10.44-1.98,14.43-4.09,3.83-1.97,7.66-6.48,8.51-10.34-.9.55-8.17-3.4-7.65-4.09-1.55,3.29-3.6,6.73-6.08,7.97-3.16,1.33-4.78,3.16-9.1,2.8-2.82.39-6.04.48-8.89-2.31-1.48-1.48-4.32-3.33-5.44-6.62-.05-2.38-2.27-6.08-1.81-9.15-.13-1.56,39.04.07,39.51,0,.26.97.64-1.53,0-1.83ZM473.38,560.08c-.26-3.7,4.55-3.76,5.22-5.01.49-.77,3.93-.91,7.43-1.72,4.7-.66,8.27,1.83,10.61,4.09,1.45,2.37,2.44,6.77,3.86,10.45,0,.31-28.98-1-29.54,0-.02-2.84.72-4.86,2.42-7.81Z"/>
      <path d="M567.73,545.91c-2.2,2.07-3.4,1.98-3.82,5.01-1.36,1.79.38,1.58-.71,5.15-1.46-2.85-3.46-5.38-6.08-6.66-4.01-2.48-8.81-2.75-14.11-3.72-5.76-.69-8.01,2.26-11.85,2.58-3.8,1.74-5.58,5.17-8.08,7.11-1.99,2.63-2.74,6.15-2.91,10.23-.1,4.95,1.18,7.36,2.91,10.39,1.01.71,3,3.63,4.53,4.77,0-.62-3.1,1.48-3.18,1.63-2.42.72-2.58,1.73-4.2,4.04-1.15,1.24-1.07,4.23-1.67,5.33-.17,2.12-.2,3.85,1.72,5.49,1.93.76,2.47,3.81,4.63,3.23-2.35.97-4.74,2.38-5.6,3.77-2.07.99-2.03,3.99-2.15,5.92.29,4.39,2.45,8.24,6.35,9.15,3.63,3.15,11.34,3.91,18.74,3.12,10.5-.03,17.26-.58,22.19-4.15,5.01-3.28,7.67-6.38,7.43-12.12-.33-4.13-2.58-7.83-4.52-9.32-2.73-1.14-7.65-3.46-12.49-3.28-.6-.76-21.13.35-20.46,0-2.69-.42-5.43.69-6.41-1.02-1.36-.24-3.57-.8-1.99-3.29.4.19-.13-3.29,2.1-3.82-.32-.18,2.77-2.01,4.15-2.18,4.45.87,5.87.83,10.77,1.91,4.18,1.5,7.86-.45,11.79-2.42,3.5-.61,5.63-4.23,7.65-6.89.66-3.34,1.73-5.29,3.29-10.61-.79-.15.57-3.1.11-2.69.45-3.49.6-6.65,2.53-8.08,1.97-.88,3.62-2,6.73-2.26.06.51,2.37.87,1.62,0-1.2,1.18-.87-7.78-.86-7.86-2.63.01-7.88.65-8.13,1.51ZM527.55,603.64c2.1-1.05,4.52-.6,6.52-1.62.06-.64,20.91.85,20.35,0,3.4.06,4.54-.16,6.08,1.24.8,1.58,2.29,2,1.99,3.93.06,3.03-1.61,4.25-4.74,5.98-2.98,1.54-8.54,1.96-15.19,1.88-5.21-.87-9.92-.88-13.08-1.67-3.9-1.56-4.35-2.82-4.25-5.33.1-1.33,1.13-3.15,2.32-4.42ZM552.97,574.78c-1.92,3.11-5.42,3.08-9.96,3.23-2.89-1.63-6.09-1.04-7.27-1.45-.41-.11-3.9-2.7-4.68-4.2-.38-1.46-3.22-3.15-1.62-6.73-.63-3.09,1.45-6.62,3.61-9.15,1.87-2.56,5.14-4.26,9.96-3.23,3.56-.39,6.98,2.06,9.96,3.23,2.23,2.11,3.83,5.09,3.61,9.15,1.12,4.68-.85,7.54-3.61,9.15Z"/>
      <path d="M633.48,592.76c-.8.71-1.94.5-3.66.75-.66.39-3.65-.98-3.88-1.29.05.19.2-2.86-1.18-4.63.51-.96-.33-22.27,0-21.86.09-7.51-2.35-12.83-5.6-15.02-5.16-3.23-8.4-5.41-16.48-5.01-3.58.3-7.24-.18-10.88,1.99-3.16.61-5.01,1.9-7.7,5.49-1.89,1.8-2.65,4.24-3.07,8.02.34-.37,8.52.62,9.05,1.51-.23.3.48-1.34,0-.65-.49-2.21.99-5.03,3.82-6.68,1.9-1.5,5.52-3.14,8.78-2.37,4.51-.57,9.17-.05,9.69,2.85,1.56,1.83,2.97,4.02,3.12,8.56.52-.44.22,2.55,0,3.12-3.82-.76-8.05.22-9.8-.54-7.58.31-13.31,1.54-18.58,4.63-5.13,3.26-7.64,7.12-6.84,13.89-.08,5.6.84,7.9,4.79,11.74,2.62,3.01,7.96,4.36,12.55,4.2,4.16-.61,8.67-1.3,10.18-2.32,2.51-1.04,4.97-2.36,6.84-6.19-.06-.75.66-1.17,1.64-3.14-.98,3.94,1.19,6.6,2.78,8.1,1.51,1.87,5.62,3.48,7.97,3.02,2.01-.7,5.65-.9,6.46-1.51.43.2-.28-7.27,0-6.68ZM611.45,589.48c-1.54,3.42-6.73,4.11-10.82,4.15-3.01-.9-5.95-.69-7.97-2.32-.68-.98-2.23-3.83-2.91-6.52-.8-3.86,2.76-6.88,4.47-8.19,2.71-1.39,7.22-2.01,13.84-2.8,3.3,0,6.15.83,7.43.16.47-.76.12,3.7,0,4.04-.2,4.78-1.79,8.25-4.04,11.47Z"/>
      <path d="M650.6,525.77c.12.47-10.26.01-9.58,0,.83.95-.03,19.02,0,37.1-.9,18.39-.27,37.17,0,37.1,1.17.65,9.43.85,9.58,0-.67.19-.76-18.49,0-37.1-.88-18.36,1.38-37.21,0-37.1Z"/>
      <path d="M208.29,654.04c-3.79-1.54-8.16-3.77-12.87-3.34-3.67.23-8.13,1.35-12.76,3.34-3.89,2.64-6.98,6.23-9.1,9.64-2.17,3.72-2.9,9.44-3.34,14.7-.4,6.18,1.16,11.51,3.34,14.81,2.88,4.55,5.1,6.72,9.05,9.64,3.64,3.1,8,3.61,12.82,3.34,4.18.85,9.33-1.44,12.87-3.34,4.45-1.83,6.91-4.33,9.15-9.64,2.56-3.4,3.28-9.91,3.39-14.81,1.02-5.12-.58-10.92-3.39-14.7-1.15-4.24-5.5-7.17-9.15-9.64ZM208.99,689.15c-1.35,2.5-3.4,4.81-5.44,6.84-1.91.73-4.97,2.07-8.13,2.32-2.85-.63-5.81-.88-8.08-2.32-1.98-1.92-3.99-4.03-5.38-6.79-1.43-2.45-1.47-6.68-1.94-10.82.23-4.49.34-8.12,1.94-10.82,1.45-3.64,3.07-4.77,5.38-6.73,2-1.73,4.81-2.58,8.08-2.26,3.15.65,5.27.5,8.13,2.32,1.68,1.3,3.94,4.27,5.44,6.79,1.06,2.61,1.82,5.22,1.94,10.72.41,4.96-.67,7.14-1.94,10.77Z"/>
      <path d="M241.46,702.93c2.64,3.24,8.37,2.93,13.08,3.34,7.18-.41,11-2.47,14.32-4.15,4.02-2.02,6.68-7.03,8.19-11.58-.58-.05-7.82-3.27-8.19-3.23-1.84,3.11-2.74,5.96-5.44,8.4-2.53,1.34-5.38,3.82-8.89,2.69-3.51.41-5.3-.7-7.92-2.32-2.33-3-3.6-5.02-5.33-6.79-.86-3.48-.65-8.45-1.94-10.61-.04-4.51.68-8.1,1.94-11.15.59-2.43,2.7-5.07,5.38-6.84,2.04-1.86,5.08-2.58,7.97-2.26,3.82-.34,6.51,1.92,8.24,2.53,2.8,1.26,3.82,3.07,5.12,7.7-.65.33,8.11-3.23,8.4-3.02-1.2-4.11-3.8-7.42-7.81-10.98-3.37-2.8-8.15-3.24-13.73-3.99-4.15.94-9.22.77-12.98,3.29-3.6,2.51-6.89,4.51-9.1,9.58-2.11,3.68-3.97,9.09-3.34,14.81-.24,6.28.26,10.28,3.18,14.92,2.07,4.13,5.97,6.92,8.83,9.64Z"/>
      <path d="M323.79,702.12c4.41-2.51,6.9-6.8,8.19-11.58.29.31-8.4-4.21-8.19-3.23-.87,4.68-3.34,7.69-5.44,8.4-3.66,1.84-6.17,1.79-8.89,2.69-3.1-.22-6.25-.81-7.92-2.32-1.88-.7-4.5-5.08-5.33-6.79-.2-3.8-1.88-6.74-1.94-10.61,1.02-3.8.98-7.94,1.94-11.15.52-2.84,2.78-6.2,5.38-6.84,1.09-3.18,6.32-3.33,7.97-2.26,4.26.09,5.73.93,8.24,2.53,2.85,2.11,4.55,2.82,5.12,7.7,1.09,1.93,8.48-1.95,8.4-3.02-2.7-6.29-4.5-8.66-7.81-10.98-3.68-2.58-9.3-4.07-13.73-3.99-4.59-.46-10.05.88-12.98,3.29-3.77,3.38-6.46,3.84-9.1,9.58-1.79,5.47-3.56,9.84-3.34,14.81,2.06,4.91.96,9.67,3.18,14.92,1.98,4.38,4.85,7.15,8.83,9.64,2.58,3.15,8.29,4.44,13.08,3.34,5.8.46,9.58-.7,14.32-4.15Z"/>
      <path d="M387.01,704.98c1.2-.18-.09-51.66,0-52.77-.18.99-8.72-1.93-9.48,0-1.89.2-1.14,24.96,0,25.52.93,3.17-1.05,9.17-2.1,11.04-.7,3.32-3.17,5.73-5.71,6.89-2.09,2.64-7.19,3.07-8.02,2.32-2.68.01-5.31-.02-7.86-3.5-1.28-3.57-2.41-6.68-2.58-10.72.66.78,1.14-31.04,0-31.56,1.14-1.19-9.04-.26-9.48,0,.3-.13-1.72,32.26,0,33.6.31,4.33-.71,6.66,1.94,10.88,1.65,2.52,4.09,7.79,5.82,7,3.2,1.18,6.28,1.82,9.59,2.48,3.77.43,6.04.78,11.47-3.61,4.1-2.47,3.05-4.9,7.05-9.64-.34.66,1.08,11.3,0,12.06-.59-.79,9.85,0,9.37,0Z"/>
      <path d="M448.62,693.51c.65-4.43,3.84-9.4,2.91-14.81-.16-6.66-1.79-10.27-2.91-15.08-1.37-2.89-5.38-7.97-7.92-9.48-2.93-2.52-6.75-4.45-11.25-3.23-3.77-.46-6.7-.93-10.34,2.48-2.34,1.98-4.78,4.06-6.95,6.62-1.19-.03-.58,1.79-1.35,2.57-1.11.17-.04-9.7,0-10.38-.82.25-10.29-.73-9.37,0-.97-.08.56,18.95,0,36.89-.28,17.9-1.38,36.69,0,36.89-.75,1.46,10.81-.55,9.58,0,1.02-.26.11-30.95,0-31.1-.92-.41,1.84.73.97,2.02,1.75,2.72,3.97,5.06,6.57,6.84,1.7,2.45,6.23,2.71,10.34,2.64,5.24.39,7.77-.76,11.69-3.29,3.11-3.18,8.49-6.25,8.02-9.58ZM434.51,696.25c-2.46,1.87-4.2,2.95-8.18,2.37-1.78.2-6.55.56-8.19-2.42-2.52.04-3.99-4.08-5.49-6.95-1.6-2.56-.32-5.28-1.94-10.66,1.2-3.93,2.51-7.34,1.94-10.34,1.38-1.78,2.46-5.08,5.49-7.05,2.97-1.65,5.07-1.46,8.29-2.53,2.56.64,3.56-.53,8.24,2.32,3.35,2.57,3.9,3.9,5.22,6.84.03,2.12,1.52,6.97,1.83,10.99-.12,3.59.91,6.79-1.88,10.61-1.73.97-3.73,5.69-5.33,6.84Z"/>
      <path d="M495.03,697.98c.85.12.36-3.9,1.64-3.14.31,3.76,1.56,6.23,2.78,8.1.78,2.54,4.52,2.09,7.97,3.02,1.74.14,5.92.26,6.46-1.51-.28,1.33-.19-5.47,0-6.68-.89-.64.58.42-3.66.75-2.74-.22-1.77,1.28-3.88-1.29.1-.97-1.32-2.82-1.18-4.63.85-.4,1.44-24.35,0-21.86-.92-4.78-2.87-11.7-5.6-15.02-3.19-3.69-10.01-4.14-16.48-5.01-4.39.6-8.74.6-10.88,1.99-2.37,1.99-7.27,4.31-7.7,5.49-1.89,1.98-4.85,6.7-3.07,8.02.69-.32,8.86,1.82,9.05,1.51-.19.9.9.84,0-.65.55-2.33,1.89-5.54,3.82-6.68,2.36-2.88,3.91-2.03,8.78-2.37,4.64.64,8.43-.24,9.69,2.85,2.31,2.66,4.7,3.16,3.12,8.56.83-.44-1.24,2.89,0,3.12-4.02,1.91-8.29-1.08-9.8-.54-7.6.2-14.16,2.24-18.58,4.63-4.8,4.02-9.22,6.09-6.84,13.89-1.05,5.26,1.14,8.1,4.79,11.74,3.58,1.9,7.47,5.26,12.55,4.2,4.88.4,7.81-1.84,10.18-2.32,3.62-1.17,3.91-3.04,6.84-6.19ZM473.06,696.31c-2.02-.73-2.29-2.75-2.91-6.52,1.4-5.62,1.47-6.18,4.47-8.19,4.71-.72,6.32-1.16,13.84-2.8,1.19-.07,6.29.14,7.43.16-1.12-.52.46,4.87,0,4.04.49,3.3-2.88,6.82-4.04,11.47-1.94,3.41-6.36,1.8-10.82,4.15-4.85-.49-5.62-2.58-7.97-2.32Z"/>
      <path d="M525.73,636.48c-.38.18-.78,16.23,0,15.72-.04-.13-10.28-.37-11.42,0-.93-1.46.15,6.35,0,7.43-.36.91,13.49-1.67,11.42,0,.29-.14.61,31.47,0,31.34,1.91,7.02,1.3,9.26,3.82,11.25,2.36,2.34,6.16,3.78,11.15,3.72,4.79.28,3.25-.3,4.74-.43-.1-.25,2.09-1.66,3.77-1.18,1.21-.68-.67-7.3,0-7.54-2.97.69-5.26-.28-6.35.86-.4-.88-2.8-.16-5.92-1.78-2.53-.62-.81-2.69-1.83-5.87.67.49-.74-31.67,0-30.37.16.49,14.29-.56,13.46,0,.75-.03.03-8.25,0-7.43.34,1.21-13.12-.04-13.57,0-1.76.16-.7-16.42,0-15.72-1.4.9-9.78,1.99-9.26,0Z"/>
      <path d="M559.65,704.98c-1.44.37,8.84.14,9.58,0-1.23-.21-.42-51.91,0-52.77.02.67-8.84,1.5-9.58,0-.65.35,1.07,51.75,0,52.77Z"/>
      <path d="M559.54,641.97c-.71.07,9.42.25,9.69,0-.21,0-.48-11.71,0-11.95.34.65-9.91-.99-9.69,0-1.1-.27-.72,11.89,0,11.95Z"/>
      <path d="M618.72,702.82c5.84-2.54,7.1-5.55,9.15-9.64,3.07-4.75,3.57-8.69,3.39-14.81-.92-6.59-.92-10.36-3.39-14.7-2.95-5.18-6.14-7.88-9.15-9.64-5.05-1.99-7.24-3.65-12.87-3.34-5.82-.34-9.54,1.99-12.76,3.34-4.05,2.25-6.69,5.35-9.1,9.64-.31,3.66-3.23,7.91-3.34,14.7-.35,5.5-.65,12.29,3.34,14.81,2.26,4.61,6,6.74,9.05,9.64,5.34,1.87,7.82,3.22,12.82,3.34,5.74-.63,8.98.96,12.87-3.34ZM592.39,689.2c-2.14-2.85-1.93-6.64-1.94-10.82-.1-3.66.87-7.74,1.94-10.82.91-2.85,4.14-4.51,5.38-6.73,3.15-2.06,5.2-2.75,8.08-2.26,3.16.79,5.67-.57,8.13,2.32,2.55.89,3.9,4.22,5.44,6.79,1.97,2.82,3.22,6.61,1.94,10.72.71,3.57-.59,7.76-1.94,10.77-.72,3.47-3.76,6.12-5.44,6.84-3.55,1.27-4.73,2.75-8.13,2.32-1.71-.37-6.31.09-8.08-2.32-1.85-2.75-3.15-3.62-5.38-6.79Z"/>
      <path d="M689.32,704.98c.78.23-.51-33.52,0-33.39.76-4.76-1.37-7.09-2.21-10.88-2.17-3.14-3.96-5.19-6.41-7.16-3.1-.96-6.32-3.19-10.12-2.53-4.58-1.24-8.21,2.54-10.34,2.85-2.43,1.44-5.4,3.71-6.84,7.65-1,.93.05.86-1.24,2.89-1.2.28-.44-13.54,0-12.21.52.2-9.53-.89-9.37,0,0-.29.02,52.24,0,52.77-.28.13,9.58-.23,9.58,0,.44.62.98-27.69,0-26.71,1.47-2.71.55-7.84,2.05-9.96.91-2.97,4.86-5.58,5.6-6.73,1.29-1.66,5-3.02,7.86-2.37,3.77-.36,7.37,1.84,8.89,3.55,1.12,1.09,3.31,5.62,2.96,10.77-.88.6-.1,31.32,0,31.45.72-.93,9.84-.67,9.59,0Z"/>
      <path d="M436.34,798.19c3.11-3.05,3.76-7.69,3.39-14.81-1.24-6.16-2.19-11.43-3.39-14.7-2.8-4.48-5.85-7.48-9.15-9.64-3.64-1.94-6.81-4.21-12.87-3.34-4.78-1.01-9.5-.25-12.76,3.34-3.32,1.8-7.01,6.29-9.1,9.64-2.64,3.69-2.54,8.98-3.34,14.7-.35,5.32,1.01,10.43,3.34,14.81,3.21,4.94,5.03,6.83,9.05,9.64,4.78,1.2,8.27,4.65,12.82,3.34,2.7-.64,8.4-.21,12.87-3.34,3.17-1.83,7.63-5.76,9.15-9.64ZM427.88,794.15c-2.07,3.35-2.42,3.46-5.44,6.84-1.15.32-4.12,1.29-8.13,2.32-3.66-.59-6.6-1.97-8.08-2.32-2.35-.82-3.9-5.17-5.38-6.79.07-3.38-1.76-7.02-1.94-10.82-1.12-4.43.75-8.01,1.94-10.82.23-1.98,3.41-6.26,5.38-6.73,1.77-1.22,6.37-4.39,8.08-2.26,2.84-.66,4.76,1.25,8.13,2.32,3,1.37,3.66,3.5,5.44,6.79.79.91,1.88,6.17,1.94,10.72-.63,5.95-.94,6.91-1.94,10.77Z"/>
      <path d="M465.04,750.85c-.35-1.28.9-3.93,1.88-6.25.98.07,1.37-1.93,6.19-2.05,2.12-1.42,3.27-.94,4.74.65-.2-.59-1.43-7.82,0-7.43-1.46.35-3.19-.31-3.29-.7-1.25.4-1.28-.99-3.72-.27-5.19.61-9.17.63-11.09,3.72-3.64,2.84-4.33,5.97-3.98,11.25-.22-.36-.32,8.09,0,7.43-1.76-1.3-11.23-.66-11.31,0-2.31-1.43.81,6.48,0,7.43-.51-.87,10.72.58,11.31,0,2.47-.55,1.03,44.33,0,45.34-.11-.36,7.91.74,9.26,0,.3-1.43.17-45.8,0-45.34.04-.31,12.86-.85,12.92,0-1.28-.55,2.29-6.6,0-7.43,1.05.82-12.23-.25-12.92,0-.25-1.86-1.55-6.54,0-6.35Z"/>
      <path d="M202.9,840.77c-.12-.06-35.71-.79-35.86,0,.03-.38.18,18.06,0,37.1v37.1s17.82.07,17.77,0c-.13.74.43-26.3,0-25.52-.18-.31,17.85.62,17.77,0,5.72.13,10.27-1.31,14.65-3.29,4.61-1.69,6.92-3.95,8.78-8.94,1.34-1.68,3.62-8.24,2.85-12.76-.16-6.52-1.55-14.18-6.46-17.18-5.76-4.69-10.84-6.22-19.49-6.52ZM207.75,872.98c-1.87.97-4.41,3.08-8.72,2.69-.66-.76-13.12-.17-14.22,0-.05.74.5-21.32,0-21,.34.22,14.64-.32,14.54,0,3.6.86,6.7.39,8.56,2.37,2.38,1.4,3.21,4.27,2.75,7.65.56,3.59-1.14,6.99-2.91,8.29Z"/>
      <path d="M284.16,903.13c-1.41-1.2-.76-2.19-1.13-4.74.33-.08,1.06-16.13,0-16.15.42-6.82-2.09-12.19-6.46-16.05-2.81-2.84-10.04-5.77-18.42-5.71-4.67-1.01-8.52,1.12-12.12,1.99-4.31,1.35-4.9,3.1-8.56,5.76-2.27,2.98-3.18,4.98-3.66,8.83.28.31,15.64,3.28,15.94,2.48-.07.27-.7-1.41,0-1.08-.62-2.43.58-5.8,2.37-5.87,1.3-1.22,4.49-2.75,6.03-2.1,3.19-.18,5.88,1.1,6.62,2.26,1.93.94,2.6,3.44,1.99,6.57.36-.19-.35,1.65,0,2.48-1.97.57-6.11-2.07-7.22-.54-8.29,1.02-14.25,2.02-19.12,4.58-4.84,2.67-7.45,6.89-7.27,14.16.11,5.35,1.57,9.11,4.95,12.06,3.24,3.28,9.1,4.83,12.92,4.42,4.06.25,7.77-.15,9.37-2.26,1.87-1.96,3.94-2.57,6.52-6.19,1.33-.25,2.11-2.81,1.53-3.16.06,2.4,2.84,3.1,3.11,7.36,1.35,2.8,6.05,3.51,10.5,3.72,4.11.33,6.46-.46,8.62-1.94-.09-.71-.22-10.15,0-9.91-1.11.44-2.64.6-3.23.43-1.73.56-2.66-1.64-3.29-1.4ZM264.02,902.27c-2.37,2.32-4.18,3.77-7.27,3.23-1.99,1.1-3.71.4-5.22-1.78-1.73-.63-2.28-3.04-1.78-4.79,1.68-3.18,2.4-5.18,3.77-6.73,3.06-3.18,4.99-3.14,9.69-2.1,1.14-.24,2.94.65,3.55.19-.07-1.36.04,3.56,0,2.94.61,3.61-2.09,6.13-2.75,9.05Z"/>
      <path d="M296.71,914.98c-.53.07,17.43.69,17.12,0-1.74,1.06-.74-17.85,0-37.1.44-18.87,1.27-35.64,0-37.1-.5,1.07-17.02.78-17.12,0,.33.97-.09,19.37,0,37.1-1.57,18.42.94,38.02,0,37.1Z"/>
      <path d="M376.84,899.79c1.35.33-13.97-4.26-14.22-4.63-1.6,2.8-2.18,5.48-4.25,6.68-2.2,1.44-3.1,2.62-7.27,2.37-1.85.24-4.78-.35-6.62-1.83-2.5-1.66-.99-2.39-3.88-4.95-.08-2.13-1.07-3.07-1.18-5.49-.31,1.33,36.91-.8,37.42,0-.29.49-.02-1.44,0-2.26.22-5.02-2.32-11.14-3.02-15.29-1.27-4.66-4.69-9.34-8.99-10.23-3.28-3.2-9.86-3.54-14.49-3.66-4.65.19-10,.86-14.32,3.39-4.44,1.21-8.26,5.82-9.75,9.75-2.36,3.82-3.74,7.95-3.5,14.97-1.32,5.27,1.19,9.98,3.18,14.54,2.44,3.76,5.15,7,9.37,9.69,3.26,2.52,10.34,2.14,15.02,3.45,7.84.32,11.74-1.18,16.91-4.52,4.85-2.88,7.48-7.96,9.59-11.95ZM341.46,876.37c1.41-3.03,1.14-3.36,3.5-3.5,1.96-.77,2.23-2.07,5.17-1.18,4.7,1.1,5.87.59,7.11,2.64,1.01,1.1,1.54,5.17,2.69,7.7-.81.28-20.22-.15-20.25,0-.05-2.25.8-2.38,1.78-5.65Z"/>
      <path d="M414.05,904.85c-.2,2.18-3.11,2.94-6.19,1.4-2.49-.32-5.33-1.21-7.54-2.64-3.27-1.76-2.97-4.83-3.45-6.95.39,1.2-14.1,2.66-14.54,3.45.58,4.12,1.32,5.95,4.09,8.45,1.76,2.59,5.14,4.44,8.67,5.87,3.77,3.16,8.39,1.66,12.55,2.15,8.06.42,13.32-3.24,17.61-4.9,5.33-2.75,5.81-6.6,6.41-12.98.17-5.61-.55-6.53-3.72-10.02-1.79-2.1-5.94-5.5-11.69-6.03,1.11-.49-9.17,1.14-10.55-2.58-2.04-.43-2.97-1.9-4.9-1.99-.51-1.3-1.23-2.04-1.35-2.85.51-.75.23-2.13,1.72-3.34,1.41-.55,2.95-1.39,5.28-1.29,4.74-1.36,4.73,1.6,6.73,2.26,1.25,1.3,1.42,2.15,3.07,5.6.55-.57,13.1-2.69,13.89-3.12-1.61-3.44-3.74-6.9-7.75-10.88-4.31-2.73-8.05-3.97-15.19-3.99-3.12-1.07-9.9,1.22-11.74,2.05-3.09.03-4.09,3.05-8.02,5.87-.61,2.15-1.65,6.21-2.85,8.78-.4,3.65,1.46,8.65,3.72,9.91,2.73,2.08,6.8,4.63,10.93,5.82.7-.06,9.63,1.33,10.12,2.58,3.62.84,4.35,1.48,5.33,2.26.31.78,2.14,1.74,1.45,3.34,1.63,1.45,0,2.63-2.1,3.77Z"/>
      <path d="M464.34,901.46c-.44-2.42-1.06-3.75-1.99-6.08.38-.47,1.41-21.51,0-20.89.71-.88,12.56-.8,13.46,0,1.27-2.1.26-11.86,0-12.28-.23-.09-12.22-.63-13.57,0,.18-1.21-.87-14.86,0-15.72,1.44.6-15.49-.47-16.15,0,.01.38,1.26,15.92,0,15.72-1.28-.34-11.87.45-12.39,0-.1.8,1.42,12.23,0,12.28-.58-1.08,13.02.56,12.28,0-.69.72-.16,21.9,0,23.26-1.41,7.16.56,8.03,4.96,13.73,4.42,4.07,7.14,3.75,14.32,4.68,4.84,1.56,3.12-1.26,6.25-.75,2.99-2.3,4.73.34,4.85-1.72,1.24-.13-.6-11.71,0-11.42-1.52,1.78-2.57.96-5.92.97-2.62,1.54-4.42-1.08-6.08-1.78Z"/>
      <path d="M484.64,914.98c-.02.85,16.7.42,17.23,0-.92-.31-1.58-53.06,0-52.77.87-.78-18.79.4-17.23,0-1.82-.2-.46,53.73,0,52.77Z"/>
      <path d="M485.18,840.77c.49-2.09-.77,13.99,0,14.11-.79-.98,15.8-.18,16.37,0,.08-1.24,1.71-15.45,0-14.11-1.01.82-17.3-.49-16.37,0Z"/>
      <path d="M558.41,863.61c-2.13-2.08-4.79-1.97-9.37-2.48-2.4.97-7.15-.75-9.58,2.37.19,1.23-3.22,4.65-6.84,6.62-.84.81-1.91,4.36-2.42,5.24-.98-.11-.22-13.87,0-13.15,1.91-.45-17.16.33-16.69,0,.09-.6-1.11,54.3,0,52.77-.86.9,18.19-.01,17.12,0,.1,2.11.2-23.93,0-25.09-.28-1.73-.33-5.96,1.24-8.29,2.07-3.88.05-4.13,3.66-5.06.08-1.97,3.01-1.98,5.98-1.72,2.77.02,4.67.48,5.76,2.64,2.02,2.48,2.54,5.87,1.88,8.13-.59-.43-.57,28.6,0,29.4,1.59.63,18.24-.75,17.12,0,.09-.19-.79-34.65,0-34.03.23-1.94-1.94-8.55-1.99-10.39.21-4.33-5.12-4.04-5.87-6.95Z"/>
      <path d="M577.37,914.98c-1.49-.63,17.63,1.37,17.23,0-.48.38.86-53.51,0-52.77.71,1.63-16.61,1.15-17.23,0-.22,1.24.61,51.58,0,52.77Z"/>
      <path d="M594.28,840.77c1.7,1.46-16.81.33-16.37,0,.11-.6.48,12.95,0,14.11-2.15,1.09,14.85.19,16.37,0,.86,2.61,1.09-13.22,0-14.11Z"/>
      <path d="M655.07,903.13c-1.37-1.72.66-2.1-1.13-4.74.93-.76,0-16.78,0-16.15.02-9.06-2.26-14.07-6.46-16.05-3.31-5.22-11.11-6.05-18.42-5.71-5.15-.89-9.26,1.7-12.12,1.99-2.9,3.67-6.63,3.81-8.56,5.76-2.06,1.59-2.64,4.21-3.66,8.83-.28-.02,17.56,2.46,15.94,2.48.57-1.85.72-.23,0-1.08-.85-2.25.48-4.12,2.37-5.87,2.38-2.09,3.06-1.75,6.03-2.1,2.61-.85,4.87-.18,6.62,2.26,1.98.45.25,5.41,1.99,6.57,2.57-.75-.82,2.11,0,2.48-3.2-1.34-6.79.28-7.22-.54-7.51-.46-12.89,2.46-19.12,4.58-3.98,2.7-8.42,8.51-7.27,14.16.41,6.26.92,8.11,4.95,12.06,3.72,2.77,6.9,3.43,12.92,4.42,3.12,1.06,5.78-.51,9.37-2.26,3.1-1.55,4.74-3.22,6.52-6.19,2.3-.14,1.61-1.28,1.53-3.16,1.03,3.08.57,3.14,3.11,7.36,2.26,5.16,4.64,6.16,10.5,3.72,4.15-.09,5.77-.17,8.62-1.94-.04,1.24,1.62-10.17,0-9.91-1.12-.91-2.14,1.97-3.23.43-2.19,1.14-3.22-.38-3.29-1.4ZM634.93,902.27c-2.3.94-4.08.35-7.27,3.23-2.32,1.38-5.23-.18-5.22-1.78-.37-.88-3.26-3.95-1.78-4.79.43-2.4,1.56-4.47,3.77-6.73,2.65-1.26,5.51-.94,9.69-2.1,3.68-1.87.88.48,3.55.19-.62-1.05.77,4.6,0,2.94-.62,3.93-1.54,6.12-2.75,9.05Z"/>
      <path d="M718.4,870.55c-1.04-3.57-3.21-4.86-5.87-6.95-3.26-1.02-4.78-.57-9.37-2.48-3.22-.72-6.12,2.78-9.58,2.37-3.17,1.87-4.67,4.17-6.84,6.62-1.3,1.67-.67,2.81-2.42,5.24-.69.09-.1-12.79,0-13.15,1.03-.84-16.94.72-16.69,0-.53.56-.35,54.33,0,52.77.73.14,16.85-1.09,17.12,0-.13.36.58-26.01,0-25.09.26-1.41-.16-7.51,1.24-8.29,2.03-1.57,2.94-2.75,3.66-5.06,2.11-1.51,2.87-1.93,5.98-1.72,3.7.04,4.98,1.91,5.76,2.64,1.41,1.44,2.3,5.01,1.88,8.13,1.68.17-.41,27.93,0,29.4-.04.18,17.65-.58,17.12,0-.43-.7.25-34.11,0-34.03-.01-4.35-.59-7.14-1.99-10.39Z"/>
      <path d="M327.08,1019.98c-.94,1.15,16.84-.33,17.12,0-.2.1-.32-19.3,0-37.1-.41-18.06.43-36.39,0-37.1.05-.46-17.77-.95-17.12,0,.13-.91.74,18.52,0,37.1-.75,19.37-.13,36.96,0,37.1Z"/>
      <path d="M404.68,1008.13c-.28-1.1-.48-3.28-1.13-4.74,1.54.2,1.47-17.58,0-16.15-.56-5.98-1.8-12.7-6.46-16.05-3.2-5.3-10.05-5.31-18.42-5.71-3.06-.82-9.81,2.79-12.12,1.99-3.01,2.05-5.86,3.81-8.56,5.76-3.29,3.8-4.2,4.93-3.66,8.83-.05.43,15.7,3.48,15.94,2.48.33-.93.08-.63,0-1.08-.23-3.54.16-4.18,2.37-5.87,1.94-1.83,3.35-3.05,6.03-2.1,3.62.8,4.86-.84,6.62,2.26.61,1.02,1.55,4.65,1.99,6.57.72-.77,1.44,2.82,0,2.48-3.03-.84-5.45-.64-7.22-.54-8.53-.62-14.72,2.84-19.12,4.58-5.37,4.34-7.24,7.34-7.27,14.16.25,5.39.53,9.74,4.95,12.06,3.05,1.93,8.6,3.29,12.92,4.42,3.52.53,6.99-.92,9.37-2.26,3.41-2.73,3.13-2.74,6.52-6.19,2.23-.51.77-1.79,1.53-3.16.2,2.2,1.95,5.44,3.11,7.36,1.62,3.13,5.66,3.68,10.5,3.72,4.08-.33,5.87-1.17,8.62-1.94-.75-1.1.81-9.93,0-9.91-.61-.38-.84-.68-3.23.43-2.01-.57-2.99-.18-3.29-1.4ZM384.54,1007.27c-.97,2.79-4.95,2.51-7.27,3.23-1.79-.07-3.52-1.06-5.22-1.78-1.25-2.49-.2-3.29-1.78-4.79.23-2.03.09-5.08,3.77-6.73,2.78-.97,5.42-2.68,9.69-2.1.27,1.16,1.9-.1,3.55.19-.42-.12-.11,2.68,0,2.94-.61,4.07-1.34,7.17-2.75,9.05Z"/>
      <path d="M462.13,968.61c-2.71-.46-4.62-3.75-9.37-2.48-5.25,1.82-5.93,2.67-9.58,2.37-3.01.99-2.76,1.63-6.84,6.62-1.58,1.08-2.06,2.41-2.42,5.24.29,1.94-.91-13.25,0-13.15-1.77,2.55-17.08-.08-16.69,0-.76.91.67,52.61,0,52.77-1.29-.28,17.19-.79,17.12,0-.35-.61,1.37-24.16,0-25.09.46-3.8,0-6.63,1.24-8.29.68-3.91,2.09-3.87,3.66-5.06,1.8-.4,3.16-1.41,5.98-1.72,1.88.58,4.14.9,5.76,2.64.99.63,2.53,5.6,1.88,8.13-.05.11-.48,28.49,0,29.4-.43-1.78,18.61.72,17.12,0,1.53,1.59.03-33.87,0-34.03.41-5.78-.67-6.44-1.99-10.39-.27-2.58-3.93-5.15-5.87-6.95Z"/>
      <path d="M517.81,977.38c.05-.69-1.05-.79-1.56-3.06-1.76-3.85-5.55-4.8-6.19-5.92-1.87-1.14-5.12-1.11-9.05-2.26-3.92-.76-7.34,1.77-11.74,3.45-3.64,1.25-6.12,5.17-7.92,9.69-1.92,3.04-3.07,8.02-2.85,14.54-.9,5.33,2.3,11.65,2.8,14.65.63,5.61,4.4,6.57,7.81,9.53,3.43,2.22,7.22,4,11.58,3.28,4.69-.38,5.12.06,8.78-1.99,2.4-1.41,3.43-3.14,6.46-5.65-.02-.37.52-2.12,2.1-3.85-.28-.57,0,8.9,0,10.2.17-.28,18.9-1.69,17.02,0-.55.74.65-17.49,0-37.1-1.37-17.92,1.12-36.96,0-37.1.3,2.08-16.16-.83-17.23,0,.6-.98.83,31.78,0,31.6ZM516.68,1002.32c-.2,3.59-.87,4.35-3.66,5.65-2.96,2-3.36,2.45-5.87,1.99-1.38,1.33-3.31-.06-6.08-1.94-1.31-1.63-1.95-3.39-3.88-5.6-1.27-2.35-.93-5.94-1.35-8.83-.92-4.59.34-5.45,1.35-8.72-.8-2.35,3.34-2.81,3.88-5.6.07-1.79,3.57-2.17,6.08-1.94,3.34-1.01,3.7.52,5.87,1.99.93,2.6,2.47,1.72,3.66,5.65.3,1.88.99,5.73,1.24,8.62.14,3.11.45,4.28-1.24,8.72Z"/>
      <path d="M547.21,1019.98c-.1.79,11.01.31,10.88,0-.13.23-.94-13.2,0-14.32-.54-.83-12.37-1.22-10.88,0-.11.1,1.15,15.15,0,14.32Z"/>
    </g>
    <g id="eye-3">
      <g id="closed">
        <g class="cls-5">
          <g>
            <circle class="cls-4" cx="448.42" cy="551.66" r="219.2"/>
            <circle class="cls-3" cx="447.63" cy="550.88" r="70.17"/>
          </g>
        </g>
        <path d="M884.07,555.31c-45.8,74.49-111.31,135.14-186.3,180.14-200.53,119.83-447.1,82.75-613.75-77.31-31.39-30.14-60.02-62.92-82.59-100.24-3.52-6.59,4.95-13.06,10.26-7.35,14.17,14.98,29.59,29.52,45.22,43.09,251.25,219.94,555.86,206.44,794.92-23.46,7.63-7.2,15.1-14.84,22.12-22.35,2.39-2.56,6.4-2.69,8.95-.3,2.19,2.05,2.6,5.28,1.17,7.78h0Z"/>
        <path d="M884.07,555.31c-12.04,20.64-26.39,34.96-37.89,53.25-10.48,18.79-26.11,35.02-44.32,47.88-13.77,12.34-34.6,28.62-49.79,42.35-15.28,9.98-35.09,24.26-54.3,36.66-23.65,12.66-48.85,26.82-77.11,37.65-28.27,9.26-52.2,13.7-79.95,23.33-28.17,8.23-54.8,11-81.31,9.42-23.15-1.39-52.84-3.72-81.2-4.1-29.35-6.46-54.44-8.26-79.69-16.85-29.04-5.39-50.37-20.95-76.47-30.3-26.16-16.77-51.72-22.54-72.66-42.61-20.81-16.59-41.32-27.37-65.34-53.85-12.03-15.66-32.38-28.72-44.6-47.43-14.38-16.78-27.58-29.15-37.99-52.81-5.1-5.27,6.33-12.13,10.26-7.35,13.95,17.55,35.73,29.84,45.22,43.09,28.47,22.98,51.24,44.4,76.96,59.52,23.57,16.25,52.33,31.67,79.24,44.56,20.87,13.24,59.17,21.45,83.14,31.34,27.21,5.29,56.03,16.03,80.16,17.54,29.3,4.17,51.32,1.17,82.53,3.99,26.68,1.41,55.39-3.11,82.16-9.5,33.66-11.33,75.12-12.12,107.75-33.49,20.34-11.13,32.95-22.81,52.33-26.43,16-7.97,35.01-18.02,51.81-30.62,16.17-14.63,35.83-22.11,50.19-37.29,18.19-12.26,32.51-28.62,48.65-43.09,3.57-7.29,16.22-14.06,22.12-22.35.1,1.22,7.19-4.97,8.95-.3,2.12,4.52,4.01,3.15,1.17,7.78-1.81-3.44,1.42-1.26,0,0Z"/>
      </g>
      <g id="open">
        <g class="cls-2">
          <g>
            <circle class="cls-4" cx="448.42" cy="551.66" r="219.2"/>
            <circle class="cls-3" cx="447.63" cy="550.88" r="70.17"/>
          </g>
        </g>
        <path d="M874.21,555.85c-220.28-180.42-518.44-211.39-765.45-65.53-34.15,19.92-67.56,42.53-97.66,68.25-2.66,2.28-6.66,1.97-8.93-.69-1.93-2.26-2-5.49-.35-7.8,24.89-33.51,55.46-61.84,88.26-87.46,204.29-159.11,499.32-159.13,704.67-1.95,32.99,25.39,63.77,53.47,88.9,86.82,4.14,6.14-3.55,13.49-9.44,8.37h0Z"/>
        <path d="M874.21,555.85c-27.77-21.65-58.13-37.88-86-60.6-28.45-18.42-61.86-31.86-91.79-46.27-28.01-12.58-64.99-22.19-96.07-31.61-33.57-7.49-63.63-16.86-98.84-16.64-32.08-6.29-65.43-2.29-99.38-.09-24.74,1.01-61.96,3.16-100.54,13.01-34.64.48-69.33,15.44-98.8,30.53-34.62,11.63-62.89,28.9-94.04,46.14-12.19,5.44-35.63,22.83-50.35,31.95-15.34,8.09-33.47,26.68-47.31,36.3-.48,5.18-8.02,3.03-8.93-.69-2-5.52-3.49-5.38-.35-7.8,10.25-15.81,26.68-33.92,41.16-46.69,14.15-21.16,28.19-30.79,47.09-40.77,24.96-18.82,54.5-34.03,80.28-52.61,29.41-16.43,60.29-25.21,87.13-36.92,33.71-7.87,58.39-22.81,89.91-22.45,29.25-3.61,62.58-7.62,94.62-7.6,39.01,3.63,61.92,2.38,93.4,7.22,31.52,2.49,63.17,13.45,91.33,22.03,34.36,11.42,60.28,19.82,87.15,36.81,31.03,15.18,57.83,31.53,80.86,51.57,15.63,11.35,36.54,26.98,47.4,40.42,14.48,13.21,31.59,31.54,41.5,46.4,5.99,4.55-2.9,13.31-9.44,8.37.04-.03,1.33,1.15,0,0Z"/>
      </g>
    </g>
    <path d="M468.25,370.38c.24.16-37.36.34-37.79,0-.57-.21,2.15,5.57.78,13.21-.31,7.62,2.16,18.79,1.94,33.64,1.38,12.67.34,27.69,2.67,43.52,1.46,15.51-.95,29.97,2.38,43.49-.42,16.29-1.46,25.22,1.83,33.59.2,7.69.73,13.08.89,13.26-.54-.02,17.02,1.85,16.81,0-.01.36,2.25-5.9.68-13.44,1.34-9.71,2.34-19.73,2.04-33.41,1.44-13.67.79-28.17,2.66-43.38,2.81-15.15,2.49-29.32,2.39-43.62,1.59-12.59,2.23-24.3,2.24-33.48-.4-8.36,1.99-13.18.48-13.37Z"/>
    <path d="M461.17,417.62c.31,2.26-29.17-2.84-24.8,0,.24-.06,1.98,16.35,1.66,34.6-1.28,21,5.05,43.62,3.08,64.26,2.78,19.36,2.13,35.73,1.66,34.6.1-1.32,11.85.84,12.01,0,.85-.82-.56-12.54,1.66-34.6,3.23-19.18,4.12-44.51,3.08-64.26,2.3-22.01,2.49-32.13,1.66-34.6Z"/>
  </g>
</svg>